<?xml version="1.0" standalone="no"?>
<!DOCTYPE svg PUBLIC "-//W3C//DTD SVG 20010904//EN"
 "http://www.w3.org/TR/2001/REC-SVG-20010904/DTD/svg10.dtd">
<svg version="1.0" xmlns="http://www.w3.org/2000/svg"
 width="1280.000000pt" height="733.000000pt" viewBox="0 0 1280.000000 733.000000"
 preserveAspectRatio="xMidYMid meet">
<metadata>
Created by potrace 1.15, written by Peter Selinger 2001-2017
</metadata>
<g transform="translate(0.000000,733.000000) scale(0.100000,-0.100000)"
fill="#000000" stroke="none">
<path d="M3166 7320 c-63 -20 -81 -62 -51 -119 16 -32 60 -52 150 -71 33 -7
116 -30 185 -53 115 -37 133 -40 230 -40 58 1 134 6 169 12 36 6 67 9 69 6 4
-4 71 -228 252 -840 33 -110 104 -352 159 -539 56 -186 98 -342 95 -347 -2 -4
-21 -11 -40 -15 -20 -4 -38 -12 -40 -18 -2 -6 4 -36 14 -66 17 -49 22 -55 43
-51 62 10 60 13 92 -101 l29 -107 -258 -277 c-143 -153 -279 -300 -303 -326
-37 -42 -48 -48 -70 -43 -14 4 -32 16 -40 28 -28 41 -64 67 -104 78 -23 6 -50
23 -65 41 -28 32 -77 58 -113 58 -11 0 -30 11 -41 25 -25 32 -63 52 -108 56
-20 2 -54 18 -78 36 -39 29 -83 41 -125 34 -4 -1 -24 11 -43 26 -26 19 -50 28
-92 31 -32 2 -80 15 -109 29 -40 19 -61 23 -90 18 -28 -4 -51 0 -87 15 -39 18
-57 20 -95 14 -25 -4 -50 -6 -56 -4 -79 25 -108 29 -143 17 -30 -10 -44 -10
-79 3 -36 12 -48 12 -85 1 -24 -7 -53 -13 -65 -12 -13 0 -47 2 -75 3 -31 1
-64 -4 -78 -12 -15 -9 -46 -13 -81 -11 -42 2 -67 -3 -97 -18 -27 -14 -60 -21
-95 -21 -40 0 -63 -6 -89 -24 -23 -15 -54 -25 -91 -28 -40 -3 -65 -12 -91 -31
-19 -15 -47 -27 -63 -27 -38 -1 -109 -34 -125 -59 -8 -13 -23 -21 -41 -21 -40
0 -95 -28 -119 -60 -14 -19 -33 -30 -61 -34 -31 -5 -52 -18 -84 -51 -23 -25
-46 -45 -50 -45 -25 0 -96 -47 -114 -76 -12 -20 -37 -41 -57 -50 -46 -19 -77
-47 -92 -84 -7 -16 -25 -34 -42 -41 -36 -15 -73 -52 -89 -90 -6 -15 -29 -39
-51 -54 -27 -18 -47 -43 -65 -81 -13 -30 -28 -54 -33 -54 -20 0 -70 -64 -80
-102 -7 -24 -24 -51 -42 -66 -32 -28 -58 -77 -58 -113 0 -11 -11 -30 -25 -41
-33 -26 -54 -67 -57 -113 -1 -25 -12 -49 -30 -69 -25 -28 -52 -111 -42 -128 3
-4 -7 -24 -22 -44 -20 -26 -29 -50 -32 -92 -2 -32 -15 -80 -29 -110 -20 -40
-24 -61 -19 -91 4 -28 0 -52 -15 -86 -17 -38 -19 -57 -13 -94 4 -25 6 -50 4
-56 -25 -80 -29 -109 -17 -143 10 -29 10 -44 0 -72 -16 -47 -16 -74 1 -115 12
-28 13 -45 4 -89 -10 -47 -9 -58 9 -94 15 -31 19 -54 15 -95 -3 -41 1 -63 18
-96 12 -24 21 -57 20 -74 -3 -59 0 -74 24 -109 15 -23 25 -54 28 -91 3 -40 12
-65 31 -91 15 -19 27 -47 27 -63 1 -38 34 -109 59 -125 13 -8 21 -23 21 -41 0
-39 27 -92 60 -120 17 -15 30 -38 34 -63 6 -28 21 -51 52 -81 24 -24 44 -46
44 -50 0 -25 47 -96 76 -114 20 -12 41 -37 50 -57 19 -46 47 -77 84 -92 16 -7
34 -25 41 -42 15 -36 52 -73 90 -89 15 -6 39 -29 54 -51 18 -27 43 -47 81 -65
30 -13 54 -28 54 -32 0 -19 66 -72 102 -82 24 -6 51 -23 66 -41 28 -32 77 -58
113 -58 11 0 30 -11 41 -25 26 -33 67 -54 113 -57 25 -1 49 -12 69 -30 28 -25
111 -52 128 -42 4 3 24 -7 44 -22 26 -20 50 -29 92 -32 32 -2 80 -15 110 -29
40 -19 61 -24 90 -19 26 4 52 -1 89 -16 46 -19 59 -20 100 -11 27 7 52 8 58 3
24 -20 98 -29 134 -17 28 10 44 10 71 0 48 -16 86 -16 119 2 24 12 39 12 82 3
46 -9 60 -8 94 7 28 13 58 18 102 16 50 -2 69 1 98 19 27 17 46 21 75 17 38
-5 110 19 124 42 4 6 27 11 52 11 50 0 102 18 123 43 7 10 28 17 46 17 43 0
94 22 124 54 14 14 35 26 48 26 38 0 87 25 115 59 15 17 35 31 44 31 32 0 99
39 119 70 11 16 26 30 33 30 29 0 93 43 115 75 12 19 38 41 58 49 37 15 99 80
99 103 0 7 6 13 13 13 29 0 94 59 110 99 9 23 21 41 27 41 21 0 80 64 91 99 7
23 23 46 45 60 31 21 74 91 74 120 0 7 14 24 30 38 37 30 60 73 60 108 0 14 6
25 13 25 86 2 1089 103 1137 115 134 34 287 125 378 225 53 58 109 155 129
220 9 30 20 58 23 63 4 4 47 15 96 24 66 12 157 17 349 18 287 2 309 6 340 65
19 37 19 53 0 90 -28 55 -77 70 -227 70 -159 0 -326 13 -464 36 l-102 17 -11
41 c-13 44 -36 102 -51 126 -60 98 -61 101 -42 124 9 12 508 625 1109 1362
l1092 1339 136 104 c75 57 140 99 145 95 4 -5 23 -56 41 -114 18 -58 38 -110
46 -116 7 -6 49 -19 93 -28 153 -34 139 -23 205 -146 33 -61 64 -109 70 -106
7 2 43 -78 88 -191 74 -190 76 -196 59 -219 -9 -13 -26 -24 -36 -24 -34 0
-100 -39 -121 -70 -11 -16 -26 -30 -33 -30 -30 0 -94 -43 -118 -79 -14 -22
-36 -42 -49 -45 -34 -9 -80 -51 -95 -86 -7 -16 -18 -30 -24 -30 -27 0 -85 -52
-106 -95 -12 -25 -26 -45 -31 -45 -20 0 -80 -65 -90 -99 -7 -23 -23 -46 -45
-60 -31 -21 -74 -91 -74 -120 0 -7 -14 -24 -30 -38 -35 -29 -60 -72 -60 -104
0 -12 -15 -39 -34 -60 -32 -35 -56 -91 -56 -130 0 -9 -7 -23 -17 -30 -24 -20
-55 -96 -52 -127 2 -17 -8 -44 -25 -69 -23 -34 -28 -53 -27 -94 0 -38 -5 -59
-22 -83 -17 -24 -22 -46 -23 -96 0 -42 -7 -77 -18 -99 -14 -27 -17 -47 -12
-89 5 -40 2 -67 -10 -99 -14 -37 -15 -52 -6 -94 9 -38 9 -60 0 -94 -10 -35 -9
-54 0 -87 15 -51 15 -50 7 -114 -6 -40 -3 -58 12 -90 15 -29 18 -48 12 -74 -9
-39 -3 -71 19 -115 9 -16 16 -55 17 -86 1 -44 6 -64 26 -90 18 -24 26 -48 28
-82 1 -50 19 -94 45 -116 9 -8 16 -29 16 -48 0 -44 21 -92 54 -122 16 -16 26
-35 26 -53 0 -37 20 -75 59 -112 17 -17 31 -38 31 -49 0 -34 31 -85 65 -108
20 -14 36 -35 39 -52 8 -39 42 -84 76 -102 17 -9 33 -28 40 -49 11 -35 63 -89
97 -100 10 -4 27 -26 38 -49 15 -31 33 -49 68 -68 27 -14 57 -39 67 -56 23
-39 63 -70 100 -78 17 -4 30 -11 30 -15 0 -21 73 -80 111 -90 25 -7 52 -24 67
-42 28 -32 77 -58 113 -58 11 0 30 -11 41 -25 25 -32 63 -52 108 -56 19 -2 51
-16 70 -31 34 -26 115 -52 132 -42 4 3 24 -7 44 -22 26 -20 50 -29 92 -32 32
-2 80 -15 110 -29 40 -19 61 -24 90 -19 26 4 52 -1 89 -16 45 -18 59 -20 97
-11 30 7 50 7 62 0 35 -20 98 -26 134 -13 28 10 42 10 65 0 40 -17 78 -17 120
0 28 12 45 13 87 4 45 -9 59 -8 93 7 26 12 59 17 96 16 42 -2 68 3 99 19 23
12 56 21 73 20 59 -3 74 0 109 24 23 15 54 25 91 28 40 3 65 12 91 31 19 15
47 27 63 27 38 1 109 34 125 59 8 13 23 21 41 21 40 0 95 28 119 60 14 19 33
30 61 34 31 5 52 18 84 51 23 25 46 45 50 45 25 0 96 47 114 76 12 20 37 41
57 50 46 19 77 47 92 84 7 16 25 34 42 41 36 15 73 52 89 90 6 15 29 39 51 54
27 18 47 43 65 81 13 30 28 54 33 54 20 0 70 64 80 102 7 24 24 51 42 66 32
28 58 77 58 113 0 11 11 30 25 41 32 25 52 63 56 108 2 19 16 51 31 70 26 34
52 115 42 132 -3 4 7 24 22 44 20 26 29 50 32 92 2 32 15 80 29 110 19 40 24
61 19 90 -4 26 1 52 16 89 18 45 20 59 11 97 -7 30 -7 50 0 62 19 34 26 98 13
134 -9 27 -9 43 1 70 16 47 16 74 -1 115 -12 28 -13 45 -4 89 10 47 9 58 -9
94 -15 31 -19 54 -15 95 3 41 -1 63 -18 96 -12 24 -21 57 -20 74 3 59 0 74
-24 109 -15 23 -25 54 -28 91 -3 40 -12 65 -31 91 -15 19 -27 47 -27 63 -1 38
-34 109 -59 125 -13 8 -21 23 -21 41 0 39 -27 92 -60 120 -17 15 -30 38 -34
63 -6 28 -21 51 -52 81 -24 24 -44 46 -44 50 0 25 -47 96 -76 114 -20 12 -41
37 -50 57 -19 46 -47 77 -84 92 -16 6 -34 25 -40 41 -14 32 -68 84 -98 93 -11
4 -32 25 -47 47 -18 28 -43 48 -81 66 -30 13 -54 28 -54 32 0 19 -63 69 -101
80 -23 7 -53 26 -67 43 -28 32 -77 58 -113 58 -11 0 -30 11 -41 25 -26 33 -67
54 -114 57 -23 1 -47 11 -63 26 -32 30 -59 41 -108 44 -22 1 -52 12 -71 27
-24 17 -50 26 -90 28 -32 3 -74 14 -97 26 -28 15 -56 21 -95 20 -37 -1 -69 6
-99 20 -38 17 -51 19 -94 10 -39 -8 -56 -7 -78 4 -32 16 -109 20 -133 6 -12
-7 -32 -5 -63 5 -38 13 -53 13 -87 3 -23 -7 -51 -13 -63 -12 -13 0 -47 2 -76
3 -35 1 -62 -3 -78 -13 -17 -12 -41 -15 -85 -11 -49 3 -67 0 -95 -17 -24 -15
-51 -21 -90 -21 -43 0 -65 -6 -93 -25 -24 -16 -51 -25 -76 -25 -47 0 -88 -15
-117 -42 -13 -12 -25 -19 -28 -16 -16 16 -152 375 -145 383 4 6 -19 85 -53
178 l-60 167 -106 0 -107 0 -36 38 c-28 29 -77 131 -65 137 1 0 36 11 77 24
116 36 226 98 296 166 95 93 130 180 155 385 14 115 6 478 -11 510 -17 31 -7
34 45 15 41 -16 47 -16 63 -2 15 13 23 13 82 -7 36 -12 92 -39 125 -60 l59
-38 29 32 c15 17 27 38 25 45 -7 29 -105 96 -180 123 -51 17 -78 32 -78 42 0
8 -16 39 -36 68 l-35 53 29 34 c66 74 43 187 -48 233 -62 32 -105 25 -188 -30
-156 -104 -234 -143 -545 -279 -266 -115 -330 -140 -337 -128 -22 34 -188 -6
-229 -55 -9 -11 1 -54 46 -193 52 -162 57 -185 54 -254 -2 -51 3 -88 13 -113
12 -28 12 -38 3 -41 -7 -3 -412 -104 -902 -226 -489 -121 -1288 -319 -1774
-440 -486 -120 -889 -219 -896 -219 -7 0 -17 17 -22 39 l-10 39 58 17 57 18 4
64 c2 36 0 67 -3 69 -3 2 -42 -8 -85 -21 -43 -14 -80 -25 -81 -25 -3 0 -31 95
-213 720 -89 305 -189 648 -222 763 -34 114 -58 210 -55 213 3 4 138 9 299 11
283 5 298 4 444 -21 170 -29 205 -31 222 -14 36 36 -4 84 -105 127 -102 42
-226 53 -723 61 -447 7 -603 17 -790 50 -79 15 -340 21 -374 10z m5803 -685
c13 -11 25 -12 58 -3 41 10 43 9 104 -40 57 -46 67 -51 131 -57 l70 -7 39 38
c21 21 42 34 46 30 4 -4 8 -109 8 -234 0 -251 -14 -365 -60 -467 -60 -136
-190 -231 -413 -300 l-44 -14 -14 34 c-21 51 -18 55 35 55 122 0 247 48 332
127 92 86 129 175 129 313 0 171 -40 252 -208 418 -92 91 -132 119 -132 94 0
-5 53 -62 118 -128 82 -83 128 -138 152 -184 34 -64 34 -67 35 -190 0 -118 -2
-128 -29 -185 -55 -112 -156 -189 -288 -220 -56 -13 -178 -21 -178 -11 0 23
-231 605 -256 647 -19 30 -37 71 -40 90 l-5 34 188 87 c103 48 192 88 197 88
5 0 17 -7 25 -15z m-859 -982 c0 -5 -94 -123 -208 -263 -114 -140 -641 -788
-1171 -1440 -530 -652 -968 -1189 -972 -1194 -5 -5 -36 -2 -76 9 -45 13 -102
19 -170 19 -57 0 -103 2 -103 3 0 2 -428 1577 -527 1940 -20 73 -34 135 -31
139 7 7 2606 658 2913 729 236 55 345 74 345 58z m-3521 -1033 c-38 -101 -22
-178 69 -332 44 -75 109 -232 166 -400 9 -27 61 -209 116 -405 56 -197 123
-436 150 -532 27 -96 49 -176 47 -177 -1 -1 -77 -4 -169 -6 l-166 -4 1 51 c0
31 -6 63 -18 85 -11 21 -19 57 -20 91 -1 44 -6 64 -26 90 -18 24 -26 48 -28
82 -1 50 -19 94 -45 116 -9 8 -16 29 -16 48 0 44 -21 92 -54 122 -16 16 -26
35 -26 53 0 38 -22 80 -60 111 -16 14 -30 35 -30 47 0 34 -36 94 -68 112 -19
11 -32 29 -36 49 -8 41 -41 86 -76 104 -16 8 -34 30 -43 53 -16 40 -62 86 -96
97 -10 3 -22 17 -25 30 -4 14 -22 40 -41 60 l-36 35 43 47 c120 134 423 455
450 478 l32 27 12 -41 c10 -36 9 -48 -7 -91z m87 -195 c28 -102 50 -185 48
-185 -1 0 -23 35 -48 78 -71 121 -86 178 -70 261 4 17 9 31 13 31 3 0 29 -83
57 -185z m-2133 -135 c2 -3 -26 -270 -62 -593 -36 -323 -69 -580 -73 -570 -4
10 -13 70 -22 133 -24 183 -135 972 -140 1002 -5 26 -3 27 42 31 60 6 250 3
255 -3z m7935 4 c17 -3 29 -11 27 -18 -2 -6 -32 -265 -65 -576 -34 -311 -65
-572 -68 -580 -4 -10 -7 -7 -9 10 -2 14 -38 266 -79 560 -41 294 -77 549 -80
567 -6 32 -6 32 42 36 88 6 201 7 232 1z m-8178 -564 c39 -278 77 -554 86
-615 17 -120 12 -233 -11 -241 -7 -3 -23 -1 -34 5 -16 9 -24 7 -39 -9 -18 -19
-18 -19 -49 44 -18 37 -48 134 -72 232 -22 93 -90 373 -151 623 -60 250 -110
456 -110 457 0 8 194 49 265 56 25 2 31 -1 37 -22 5 -14 40 -252 78 -530z
m473 533 c48 -8 89 -19 92 -23 3 -5 -22 -133 -54 -287 -33 -153 -92 -431 -131
-618 -54 -257 -79 -357 -102 -407 -18 -38 -34 -68 -36 -68 -3 0 -10 8 -17 17
-11 15 -17 15 -40 5 -20 -10 -31 -10 -39 -2 -25 25 -10 262 52 805 34 297 64
555 68 574 l5 33 57 -6 c31 -4 96 -14 145 -23z m7503 -657 l85 -609 -16 -133
c-8 -73 -15 -141 -15 -151 0 -20 -28 25 -101 167 -51 100 -45 78 -325 1239
-14 57 -23 105 -21 108 10 9 121 34 205 47 l87 12 8 -35 c4 -20 46 -310 93
-645z m454 658 c47 -9 88 -19 92 -23 4 -4 -8 -81 -28 -171 -19 -91 -53 -248
-74 -350 -22 -102 -66 -312 -99 -467 l-60 -281 -69 -138 -69 -137 -21 149 -20
149 70 635 c38 349 72 641 74 649 5 15 56 11 204 -15z m-7659 -84 c43 -15 84
-32 93 -37 13 -7 -25 -91 -254 -548 -148 -297 -268 -531 -265 -520 18 81 245
1151 245 1158 0 7 79 -16 181 -53z m7991 -12 l77 -29 -123 -247 c-67 -136
-187 -379 -266 -539 -79 -161 -145 -292 -146 -290 -1 1 17 94 41 207 81 375
205 960 205 964 0 6 128 -33 212 -66z m-9157 30 c3 -13 21 -86 39 -163 19 -77
56 -228 81 -335 26 -107 71 -294 101 -415 29 -120 52 -220 51 -222 -3 -3 -551
1025 -555 1042 -3 13 79 53 186 90 85 30 90 30 97 3z m7985 -110 c51 -212 127
-525 186 -767 30 -123 52 -226 50 -228 -2 -3 -7 6 -11 19 -8 25 -99 265 -281
743 -63 166 -114 306 -114 312 0 10 97 50 127 52 6 1 24 -54 43 -131z m-6460
-84 l39 -26 -32 -52 c-18 -28 -77 -121 -130 -206 -89 -144 -114 -174 -338
-415 -297 -320 -349 -375 -354 -375 -8 0 17 53 299 623 l286 579 95 -51 c52
-28 113 -63 135 -77z m7893 38 c53 -31 97 -60 97 -65 0 -5 -153 -255 -341
-555 l-341 -545 -107 -103 c-58 -56 -107 -101 -109 -99 -1 1 11 67 28 146 l30
144 290 583 290 583 32 -17 c18 -9 77 -41 131 -72z m-9421 -514 c168 -315 310
-594 316 -619 15 -60 -1 -102 -36 -96 -13 3 -29 -1 -36 -8 -29 -30 -93 54
-456 600 -271 410 -355 543 -346 552 17 18 229 143 242 143 7 0 149 -258 316
-572z m7555 265 c46 -114 81 -208 79 -210 -2 -2 -135 193 -230 339 l-17 26 38
26 c21 14 40 26 43 26 3 0 42 -93 87 -207z m-5936 148 l23 -19 -119 -129 c-66
-72 -121 -129 -123 -128 -5 4 180 295 188 295 4 0 18 -8 31 -19z m7999 -31
c36 -27 87 -69 114 -92 l48 -43 -378 -360 c-467 -444 -502 -476 -483 -445 9
14 141 225 294 470 153 245 289 462 302 483 13 20 27 37 31 37 4 0 36 -23 72
-50z m-9888 -452 c173 -260 323 -486 333 -503 12 -18 -17 3 -75 56 -52 47
-256 230 -452 407 l-358 321 73 65 c75 67 148 125 158 126 3 0 147 -213 321
-472z m7805 226 c144 -217 165 -255 221 -394 34 -84 61 -155 59 -156 -1 -2
-154 133 -339 299 l-336 302 21 24 c37 40 198 172 207 169 5 -2 80 -111 167
-244z m-5759 99 c-187 -221 -268 -308 -374 -408 -71 -65 -104 -92 -74 -60 213
230 453 485 458 485 3 0 -2 -8 -10 -17z m231 -218 l28 -40 -498 -390 c-274
-214 -511 -398 -526 -408 -69 -44 -153 -39 -153 8 0 13 -5 27 -10 30 -20 12
25 67 115 139 149 120 293 255 440 412 77 81 205 215 285 297 l145 149 72 -78
c40 -43 86 -97 102 -119z m7908 62 c41 -49 72 -94 70 -100 -2 -6 -231 -189
-510 -407 l-506 -395 -132 -57 c-73 -32 -134 -57 -135 -55 -2 2 30 57 70 123
l74 119 474 452 473 451 24 -21 c13 -12 57 -62 98 -110z m-10262 -344 c459
-413 549 -503 525 -527 -6 -6 -10 -20 -10 -32 0 -15 -10 -28 -28 -37 -27 -13
-34 -12 -85 12 -58 27 -1076 769 -1077 785 -1 20 177 239 190 234 3 -2 222
-197 485 -435z m7845 101 l345 -310 71 -180 c40 -98 70 -180 69 -182 -2 -2
-239 171 -528 384 l-526 387 22 31 c12 17 55 71 95 119 65 78 75 87 90 75 9
-7 172 -153 362 -324z m-5396 44 c57 -88 103 -175 95 -182 -6 -7 -1083 -476
-1085 -473 -2 1 204 164 457 361 253 198 462 363 465 368 9 14 14 9 68 -74z
m7991 -52 c36 -60 65 -114 65 -120 0 -10 -1080 -489 -1087 -483 -1 2 208 168
465 369 353 276 470 363 479 354 7 -6 42 -60 78 -120z m-10643 -271 c262 -192
475 -351 474 -352 -1 -1 -245 96 -542 215 -296 120 -547 221 -557 225 -17 6
-16 9 4 49 47 94 125 218 135 216 6 -2 224 -160 486 -353z m7945 9 c400 -294
517 -382 478 -361 -9 4 -1019 413 -1083 438 l-22 9 26 52 c55 111 118 209 131
204 7 -3 219 -157 470 -342z m-5101 -81 c18 -53 25 -86 19 -91 -6 -5 -161 -58
-345 -118 -373 -120 -311 -110 -718 -122 -127 -4 -232 -5 -232 -1 0 3 269 123
598 266 l597 261 27 -56 c14 -31 39 -94 54 -139z m7955 8 c16 -47 28 -90 25
-96 -2 -7 -22 -17 -43 -22 -21 -6 -295 -94 -609 -196 l-570 -186 -149 -11
c-81 -5 -150 -9 -151 -7 -2 2 48 43 111 93 l114 89 598 262 598 261 23 -51
c13 -29 37 -90 53 -136z m-10851 -101 c555 -224 627 -255 680 -298 21 -17 22
-22 11 -36 -8 -9 -11 -26 -7 -40 4 -15 0 -28 -9 -36 -34 -29 -136 -5 -745 174
-333 98 -610 181 -617 185 -20 11 80 296 101 288 6 -3 270 -109 586 -237z
m7969 -4 c395 -160 611 -252 626 -268 18 -19 65 -124 65 -145 0 -3 -39 -3 -87
0 -76 4 -161 26 -618 161 -291 86 -567 168 -612 181 l-82 25 19 63 c27 91 77
227 84 227 1 0 273 -110 605 -244z m-5014 -109 c9 -43 15 -80 13 -81 -5 -5
-629 -28 -633 -24 -2 2 130 47 293 100 163 53 300 93 303 90 4 -4 14 -42 24
-85z m7946 51 c12 -45 49 -251 46 -255 -2 -1 -259 -18 -572 -37 -314 -20 -582
-37 -597 -39 -16 -2 -26 -1 -23 2 5 4 1110 367 1127 370 4 1 12 -18 19 -41z
m-1807 -113 c12 -87 12 -104 -2 -129 -14 -29 -15 -29 -29 -10 -12 15 -14 38
-9 111 7 97 18 168 23 143 2 -8 9 -60 17 -115z m122 -5 c-19 -87 -30 -119 -50
-138 l-25 -25 -7 27 c-5 21 5 53 47 141 30 62 55 112 57 110 1 -1 -9 -53 -22
-115z m-9291 -76 c500 -147 517 -153 450 -153 -51 0 -1101 36 -1123 39 -9 1
27 240 43 287 3 9 17 8 57 -4 29 -8 287 -84 573 -169z m7925 11 c294 -86 540
-158 545 -160 22 -8 -154 -4 -655 15 -289 11 -526 19 -527 20 -10 1 29 269 42
290 3 5 18 5 33 0 15 -5 268 -79 562 -165z m1125 54 c32 -63 45 -101 43 -122
-3 -27 -10 -15 -47 78 -23 61 -45 116 -48 123 -3 6 -2 12 1 12 3 0 26 -41 51
-91z m342 -66 c-69 -107 -117 -146 -117 -96 0 19 23 49 87 114 47 49 88 87 90
85 2 -2 -25 -48 -60 -103z m-5457 21 c13 -34 13 -34 -10 -34 -12 0 -26 -12
-35 -30 -9 -18 -23 -30 -36 -30 -12 0 -23 -10 -29 -25 -5 -14 -20 -29 -34 -34
-13 -6 -26 -21 -30 -36 -4 -14 -18 -31 -31 -37 -17 -8 -25 -19 -25 -37 0 -15
-8 -31 -20 -39 -12 -7 -20 -23 -20 -41 0 -16 -7 -34 -16 -42 -11 -9 -14 -22
-10 -41 4 -22 2 -28 -12 -28 -13 0 -17 9 -18 38 -1 20 -3 55 -4 77 -1 22 1 60
5 85 5 32 3 56 -7 80 -10 24 -12 44 -6 65 5 17 7 51 4 77 l-5 47 132 4 c73 1
147 4 165 5 27 2 34 -3 42 -24z m-877 -41 c4 -20 5 -38 4 -39 -1 -2 -259 -19
-572 -38 -314 -20 -583 -38 -599 -41 -57 -10 -15 8 146 62 l163 55 240 9 c311
13 598 26 606 27 4 1 9 -15 12 -35z m6507 3 c0 -2 -40 -35 -88 -73 -60 -48
-100 -72 -125 -76 -20 -3 -37 -3 -37 1 1 25 52 62 141 103 122 55 109 50 109
45z m-7600 -62 c-177 -59 -288 -81 -322 -63 -15 8 -18 17 -13 40 5 23 2 34
-12 44 -10 8 -16 15 -13 17 5 2 308 13 445 16 l80 1 -165 -55z m7230 6 c0 -5
-5 -10 -11 -10 -5 0 -7 5 -4 10 3 6 8 10 11 10 2 0 4 -4 4 -10z m-6125 -72 c3
-35 5 -103 3 -153 l-3 -90 -75 2 c-41 2 -354 31 -695 65 -568 57 -621 64 -637
83 -10 11 -17 23 -18 27 0 4 30 17 68 28 55 16 172 27 672 59 333 21 622 39
642 40 l36 1 7 -62z m6185 52 c0 -5 -5 -10 -11 -10 -5 0 -7 5 -4 10 3 6 8 10
11 10 2 0 4 -4 4 -10z m1775 -75 c7 -82 4 -210 -5 -219 -3 -2 -297 7 -655 20
l-650 23 -134 40 c-74 23 -136 42 -137 44 -2 2 63 24 144 50 l147 48 605 38
c333 21 621 39 642 40 l36 1 7 -85z m-10943 5 c301 -10 552 -22 558 -25 6 -4
-7 -19 -32 -34 -53 -34 -104 -84 -124 -122 -8 -16 -23 -29 -33 -29 -10 0 -265
-16 -567 -35 -301 -19 -551 -35 -555 -35 -11 0 -22 202 -14 258 l7 51 106 -5
c59 -3 353 -14 654 -24z m7959 0 c531 -18 536 -18 628 -46 77 -23 95 -32 106
-55 l15 -27 -108 -36 -107 -35 -644 -41 c-354 -22 -646 -38 -649 -36 -7 8 -15
253 -8 279 l6 26 113 -5 c61 -3 353 -14 648 -24z m1259 20 c0 -5 -2 -10 -4
-10 -3 0 -8 5 -11 10 -3 6 -1 10 4 10 6 0 11 -4 11 -10z m214 -67 c-88 -28
-119 -34 -150 -28 l-39 7 30 21 c30 22 89 32 210 35 l60 1 -111 -36z m-769 16
c11 -16 3 -17 -40 -4 l-40 13 37 1 c20 1 40 -4 43 -10z m-8005 -27 c0 -4 -7
-18 -16 -30 -15 -21 -15 -25 0 -41 9 -10 16 -20 16 -23 0 -4 -21 -14 -47 -23
-53 -19 -183 -35 -183 -23 0 18 78 92 125 119 47 27 105 39 105 21z m8610 -36
c0 -3 -4 -8 -10 -11 -5 -3 -10 -1 -10 4 0 6 5 11 10 11 6 0 10 -2 10 -4z m159
-47 c58 -17 108 -33 111 -36 13 -13 -236 11 -257 24 -28 18 -29 30 -5 36 33 9
44 7 151 -24z m-705 -24 c8 -21 -11 -27 -70 -23 l-49 3 50 16 c64 22 62 22 69
4z m669 -96 c53 -39 97 -72 97 -74 0 -10 -218 89 -232 106 -25 30 -22 39 10
39 19 0 60 -23 125 -71z m227 57 c32 -3 1230 -351 1257 -365 20 -10 -80 -296
-101 -288 -204 82 -1167 472 -1181 479 -19 10 -230 161 -249 179 -8 7 182 4
274 -5z m-8955 -20 c13 -9 16 -20 12 -37 -4 -14 -1 -30 8 -39 13 -14 9 -20
-34 -53 -26 -20 -94 -57 -150 -82 -118 -51 -116 -52 -116 55 1 109 4 114 87
138 64 19 87 23 159 30 8 1 23 -4 34 -12z m8079 -3 c4 -9 3 -19 -1 -23 -4 -4
-47 -37 -94 -73 -80 -62 -122 -82 -680 -326 l-594 -260 -28 62 c-42 93 -81
217 -71 226 17 15 1199 395 1249 401 28 4 87 8 131 9 68 1 83 -2 88 -16z m481
7 c3 -5 1 -10 -4 -10 -6 0 -11 5 -11 10 0 6 2 10 4 10 3 0 8 -4 11 -10z m1065
-5 c245 -8 491 -18 548 -21 98 -6 102 -7 102 -29 0 -37 -40 -259 -48 -266 -4
-4 -263 69 -577 162 -461 136 -560 168 -520 168 28 1 250 -6 495 -14z m-9920
-19 c-16 -15 -1061 -358 -1068 -351 -10 10 -65 285 -58 292 2 3 1032 70 1096
72 38 1 42 -1 30 -13z m7475 -166 c-302 -99 -557 -182 -567 -185 -19 -7 -29
21 -52 140 -29 159 -29 155 7 156 18 0 255 15 527 33 740 50 730 66 85 -144z
m1381 158 c15 -7 51 -49 83 -98 79 -118 80 -119 35 -81 -83 71 -144 133 -144
146 0 7 -3 20 -6 29 -7 19 -3 20 32 4z m-46 -19 c0 -6 -4 -7 -10 -4 -5 3 -10
11 -10 16 0 6 5 7 10 4 6 -3 10 -11 10 -16z m-412 -14 c-2 -9 -28 -27 -58 -40
l-55 -25 45 40 c47 41 74 51 68 25z m-8412 -72 c-1 -43 1 -91 4 -107 l5 -30
-475 -207 c-261 -115 -475 -207 -476 -206 -1 1 -18 40 -37 87 -45 110 -71 190
-63 197 3 3 99 36 213 74 114 37 345 113 513 167 168 55 308 101 311 101 3 1
5 -34 5 -76z m8613 -84 c-29 -60 -54 -107 -56 -105 -2 1 8 54 22 117 20 88 30
118 48 131 21 16 22 16 31 -9 7 -22 -1 -45 -45 -134z m81 157 c0 -3 -4 -8 -10
-11 -5 -3 -10 -1 -10 4 0 6 5 11 10 11 6 0 10 -2 10 -4z m118 -18 c18 -20 73
-205 72 -242 -1 -6 -25 36 -55 94 -67 129 -77 211 -17 148z m271 -37 l134 -54
516 -380 c284 -209 519 -383 524 -386 7 -7 -143 -202 -176 -229 -13 -11 -86
50 -499 422 l-483 435 -83 126 c-45 70 -79 125 -74 123 4 -1 68 -27 141 -57z
m-7514 8 l300 -32 348 -102 c191 -57 350 -105 353 -107 5 -6 -54 -188 -81
-251 -9 -22 -21 -37 -28 -34 -7 3 -275 112 -597 241 -548 222 -690 287 -690
319 0 6 18 7 48 4 26 -4 182 -21 347 -38z m7165 10 c11 -25 11 -53 1 -142 -7
-61 -13 -113 -15 -114 -2 -2 -10 49 -18 113 -12 87 -13 123 -5 145 14 37 21
37 37 -2z m-230 -64 c-46 -46 -85 -83 -87 -81 -2 2 15 33 37 69 34 54 49 68
83 81 23 8 44 15 47 15 2 1 -33 -37 -80 -84z m-70 51 c0 -8 5 -16 11 -18 6 -2
-14 -43 -45 -93 -51 -83 -93 -126 -528 -541 l-473 -452 -24 22 c-46 41 -172
198 -168 209 2 7 231 190 509 407 454 354 516 399 600 437 103 46 118 49 118
29z m110 -165 l-31 -141 -289 -586 -290 -586 -95 51 c-52 28 -113 62 -134 77
l-39 25 345 552 345 552 106 101 c59 56 108 101 110 99 1 -1 -11 -66 -28 -144z
m512 -21 c16 -14 191 -268 388 -565 272 -411 355 -543 346 -552 -21 -23 -230
-144 -243 -141 -7 2 -148 257 -314 568 l-300 565 -34 137 c-19 75 -35 142 -35
149 0 6 37 -22 81 -62 45 -41 95 -85 111 -99z m-7821 132 c40 -20 1016 -729
1061 -771 4 -4 -6 -23 -22 -43 l-29 -35 -133 -9 c-73 -5 -140 -9 -149 -9 -22
0 -627 543 -635 570 -13 40 -55 82 -120 120 -71 42 -131 109 -115 129 5 6 11
22 13 36 2 16 12 27 28 31 40 11 44 10 101 -19z m-852 7 c23 -8 31 -17 31 -34
0 -13 4 -27 10 -30 18 -11 -21 -68 -108 -157 l-85 -87 -29 17 c-36 21 -121
109 -116 122 6 16 163 135 208 157 53 26 49 26 89 12z m1850 -20 c128 -13 133
-14 143 -39 5 -14 17 -33 25 -42 9 -10 14 -18 12 -18 -2 0 -94 27 -204 60
-111 34 -180 59 -155 56 25 -2 105 -10 179 -17z m6641 -181 c33 -65 56 -147
149 -530 167 -689 191 -788 191 -793 0 -10 -289 -69 -298 -61 -3 4 -13 71
-108 741 l-76 540 16 145 c9 80 16 150 16 155 0 11 48 -75 110 -197z m-186 65
c10 -69 18 -147 18 -172 -1 -45 -128 -1214 -138 -1258 -3 -16 -12 -23 -28 -23
-38 0 -260 40 -268 48 -6 6 171 868 251 1222 10 45 131 308 142 309 3 1 14
-56 23 -126z m-6744 -153 c261 -106 485 -196 498 -201 l22 -9 -31 -62 c-53
-108 -113 -199 -126 -193 -14 5 -919 669 -943 691 -8 9 11 4 45 -10 33 -13
274 -110 535 -216z m8019 -24 c227 -92 424 -171 437 -176 l24 -10 -26 -52
c-58 -116 -118 -209 -132 -203 -16 6 -952 695 -952 700 0 2 53 -18 118 -44 64
-27 303 -124 531 -215z m-8895 238 c5 -14 4 -15 -9 -4 -17 14 -19 20 -6 20 5
0 12 -7 15 -16z m-908 -2 c-2 -4 -25 -22 -49 -40 -38 -27 -46 -29 -51 -15 -4
9 -5 16 -4 17 2 1 23 11 48 23 48 23 64 28 56 15z m314 4 c0 -3 -4 -8 -10 -11
-5 -3 -10 -1 -10 4 0 6 5 11 10 11 6 0 10 -2 10 -4z m7645 -5 c-6 -5 -218
-171 -473 -370 l-463 -361 -47 73 c-64 97 -109 189 -97 194 6 2 249 109 540
237 292 129 534 234 540 235 6 1 6 -2 0 -8z m-7589 -43 c22 3 22 3 8 -50 -7
-29 -14 -78 -14 -108 0 -34 -6 -64 -16 -78 -14 -20 -21 -22 -62 -17 -44 6
-112 21 -140 30 -17 6 66 138 125 197 38 39 49 45 61 35 8 -6 25 -10 38 -9z
m-499 -55 c-7 -8 -191 -152 -408 -322 -302 -236 -397 -306 -406 -297 -17 15
-143 228 -143 241 0 6 213 103 473 217 421 184 473 204 485 190 10 -13 10 -19
-1 -29z m2548 17 c8 -13 -5 -13 -25 0 -13 8 -13 10 2 10 9 0 20 -4 23 -10z
m-2502 -60 c10 -16 42 -48 71 -71 l53 -42 -381 -363 -381 -363 -24 22 c-47 44
-172 199 -168 210 3 10 796 636 807 637 3 0 14 -13 23 -30z m3106 4 c17 -12
21 -22 16 -41 -4 -19 0 -32 15 -48 15 -16 20 -30 15 -44 -4 -15 1 -24 20 -37
15 -10 25 -26 25 -40 0 -16 8 -28 24 -36 16 -6 26 -21 28 -37 2 -18 10 -27 26
-29 16 -2 27 -14 34 -33 7 -21 16 -29 34 -29 16 0 28 -8 36 -25 8 -18 19 -25
38 -25 18 0 31 -8 40 -26 12 -21 19 -25 42 -20 20 4 31 0 42 -15 11 -17 21
-20 45 -14 20 4 31 3 31 -4 0 -6 -7 -11 -14 -11 -17 0 -659 -57 -719 -64 -33
-4 -37 -2 -31 12 4 10 12 38 18 63 6 26 19 55 28 66 25 28 50 91 47 122 -2 15
8 43 25 68 23 34 28 53 27 94 0 37 5 59 19 79 11 16 23 42 26 59 7 35 27 40
63 15z m6513 -501 l356 -321 -46 -44 c-60 -57 -171 -148 -181 -148 -6 0 -562
825 -656 975 -12 18 17 -3 75 -56 52 -47 255 -229 452 -406z m-9394 427 c-20
-35 -48 -54 -48 -33 0 7 61 73 67 73 2 0 -7 -18 -19 -40z m7934 -37 c-27 -43
-169 -270 -316 -505 -147 -236 -271 -428 -276 -428 -10 0 -199 150 -218 173
-11 12 58 82 420 426 237 226 433 411 435 411 2 0 -19 -35 -45 -77z m-7198 -6
c-7 -18 -24 -23 -24 -8 0 22 13 42 22 33 5 -5 6 -16 2 -25z m-791 -41 c-60
-100 -539 -865 -549 -875 -11 -12 -24 -6 -86 42 -40 30 -93 73 -116 94 l-44
38 387 368 c314 299 389 366 401 356 7 -6 11 -16 7 -23z m482 14 c-34 -13
-175 -17 -175 -4 0 18 5 19 102 15 58 -2 85 -6 73 -11z m164 16 c-2 -2 -29 -6
-59 -10 -38 -4 -50 -3 -40 4 13 9 109 15 99 6z m140 -75 c22 -46 23 -81 4 -81
-5 0 -14 25 -22 56 -7 31 -15 64 -19 72 -13 36 16 -1 37 -47z m615 -216 l267
-240 -38 -6 c-21 -4 -83 -10 -138 -13 l-100 -7 -157 238 c-87 131 -158 246
-158 255 0 9 3 24 6 32 8 21 0 28 318 -259z m6800 65 c-24 -113 -78 -365 -119
-560 -42 -195 -79 -367 -83 -382 l-7 -27 -118 39 c-64 22 -128 45 -142 53
l-25 13 267 537 c147 295 268 536 269 534 1 -1 -18 -94 -42 -207z m790 -313
c152 -285 276 -522 276 -527 0 -5 -21 -19 -47 -30 -54 -24 -210 -80 -223 -80
-7 0 -45 149 -220 875 -34 138 -63 259 -67 270 -3 11 -3 18 0 15 3 -3 129
-238 281 -523z m-8901 499 c29 -8 73 -17 99 -21 l47 -6 -254 -510 -255 -509
-33 16 c-81 41 -227 129 -227 137 0 12 559 907 567 907 3 0 28 -6 56 -14z
m652 -36 c28 -109 34 -93 -58 -148 -45 -28 -89 -52 -96 -54 -12 -2 -19 23 -32
112 -9 63 -15 116 -14 118 5 6 122 20 154 19 32 -2 36 -5 46 -47z m65 30 c0
-5 -2 -10 -4 -10 -3 0 -8 5 -11 10 -3 6 -1 10 4 10 6 0 11 -4 11 -10z m-328
-152 c-12 -107 -19 -139 -31 -142 -136 -38 -192 -59 -205 -78 -9 -12 -17 -20
-20 -17 -4 4 71 359 77 365 6 6 182 20 188 15 4 -4 0 -68 -9 -143z m-207 110
c-3 -13 -20 -94 -39 -181 -19 -88 -37 -161 -39 -163 -2 -3 -16 0 -30 5 -37 14
-39 2 -12 -58 l25 -52 -70 -326 c-38 -179 -71 -327 -73 -329 -4 -4 -232 73
-260 88 l-24 13 254 513 c226 456 286 565 268 490z m279 -189 c4 -23 0 -29
-25 -39 -16 -7 -32 -10 -35 -7 -6 5 13 194 23 237 4 17 10 -6 19 -70 7 -52 15
-107 18 -121z m7965 -39 c17 -129 53 -390 80 -580 27 -190 48 -346 47 -347 -6
-7 -221 -15 -257 -9 l-45 7 66 589 c36 324 68 586 71 582 3 -4 20 -113 38
-242z m-7304 -6 c83 -125 151 -230 153 -234 1 -4 -53 -11 -120 -14 -68 -4
-132 -10 -143 -12 -17 -4 -34 21 -112 169 -51 96 -93 178 -93 183 0 5 28 27
61 49 33 22 66 50 75 63 8 12 18 22 22 22 4 0 75 -102 157 -226z m-248 -87
l91 -172 -41 -7 c-23 -3 -61 -7 -84 -7 l-41 -1 -36 149 c-20 82 -36 156 -36
164 0 13 35 45 50 46 3 0 46 -77 97 -172z m-133 -33 c21 -86 36 -157 34 -159
-2 -1 -57 -6 -124 -10 l-121 -7 -12 93 c-7 52 -14 99 -16 106 -2 7 24 28 58
47 34 19 78 46 97 60 19 14 38 25 41 26 3 0 22 -70 43 -156z m-245 -74 c6 -47
11 -90 11 -97 0 -7 -23 -13 -59 -15 l-59 -3 2 37 c1 20 8 43 16 53 11 14 11
18 -2 31 -25 25 -11 60 30 77 21 7 40 11 43 8 3 -3 11 -44 18 -91z m1343 -87
c-63 -79 -61 -79 -123 -24 l-54 49 80 6 c44 4 89 8 100 9 30 4 30 1 -3 -40z
m-1681 -44 c27 -27 55 -41 103 -54 60 -16 66 -20 65 -44 0 -14 -12 -132 -27
-261 l-27 -235 -55 2 c-66 3 -238 32 -244 42 -3 4 19 119 49 256 29 138 59
277 65 310 11 52 14 57 24 40 6 -11 27 -36 47 -56z m1543 5 l57 -51 -77 -71
c-78 -72 -151 -128 -158 -121 -8 9 -186 279 -186 281 0 2 26 5 58 6 31 2 95 7
142 11 47 4 90 4 96 1 6 -3 37 -28 68 -56z m-309 -85 c44 -67 88 -134 98 -150
l19 -28 -74 -48 c-86 -57 -185 -109 -191 -103 -10 11 -228 422 -225 425 3 3
204 21 258 23 34 2 37 -2 115 -119z m-279 -131 l113 -213 -50 -22 c-67 -31
-229 -87 -234 -82 -8 9 -128 519 -123 524 9 10 163 22 172 14 5 -4 60 -103
122 -221z m-265 -28 c81 -331 78 -297 27 -311 -46 -12 -251 -49 -255 -45 -4 3
-83 569 -80 572 4 4 200 22 227 20 23 -1 26 -10 81 -236z m-331 213 c0 -5 18
-134 40 -287 22 -154 39 -281 37 -282 -8 -8 -220 -16 -258 -10 l-45 7 18 157
c10 86 24 204 31 262 9 81 16 105 27 105 8 0 16 10 18 22 3 19 11 23 55 26 29
2 58 4 65 5 6 1 12 -1 12 -5z"/>
</g>
</svg>
