<?xml version="1.0" standalone="no"?>
<!DOCTYPE svg PUBLIC "-//W3C//DTD SVG 20010904//EN"
 "http://www.w3.org/TR/2001/REC-SVG-20010904/DTD/svg10.dtd">
<svg version="1.0" xmlns="http://www.w3.org/2000/svg"
 width="1280.000000pt" height="890.000000pt" viewBox="0 0 1280.000000 890.000000"
 preserveAspectRatio="xMidYMid meet">
<metadata>
Created by potrace 1.15, written by Peter Selinger 2001-2017
</metadata>
<g transform="translate(0.000000,890.000000) scale(0.100000,-0.100000)"
fill="#000000" stroke="none">
<path d="M4912 8884 c-26 -18 -29 -56 -6 -75 13 -10 15 -30 12 -101 -2 -66 0
-88 10 -88 22 0 32 49 30 148 -2 53 1 105 6 115 11 22 -20 24 -52 1z"/>
<path d="M4798 8674 c-19 -41 -23 -64 -22 -141 l2 -93 -28 0 c-15 0 -33 -7
-41 -16 -11 -13 -7 -21 24 -52 20 -20 40 -33 44 -28 4 4 0 12 -10 17 -9 6 -17
18 -17 29 0 17 38 52 69 61 9 3 15 30 18 84 9 133 8 164 -5 177 -9 9 -17 1
-34 -38z"/>
<path d="M4479 8513 c-24 -27 -71 -99 -104 -161 -33 -63 -83 -139 -111 -171
-36 -39 -85 -120 -159 -261 -354 -673 -430 -805 -650 -1130 -84 -124 -164
-248 -179 -277 -24 -48 -35 -103 -20 -103 11 0 33 34 34 50 0 8 15 30 34 50
19 19 55 73 81 120 25 47 57 96 70 110 13 14 84 133 158 265 199 358 866 1501
899 1543 7 8 7 12 1 12 -6 0 -30 -21 -54 -47z"/>
<path d="M4911 8513 c-29 -74 -41 -255 -22 -338 l7 -30 14 40 c10 28 14 89 15
197 0 87 -1 158 -1 158 -1 0 -7 -12 -13 -27z"/>
<path d="M4572 8456 c-56 -61 -99 -150 -172 -361 -86 -248 -119 -309 -160
-298 -20 5 -23 -2 -54 -139 -17 -73 -47 -137 -185 -392 -114 -210 -178 -351
-231 -501 -51 -146 -86 -210 -145 -264 -25 -23 -45 -44 -45 -46 0 -3 11 -5 25
-5 14 0 25 -4 25 -8 0 -5 -11 -19 -25 -32 -21 -20 -25 -33 -25 -81 0 -32 -3
-60 -8 -62 -4 -3 -68 17 -142 45 -394 146 -1774 610 -1793 602 -8 -3 -29 4
-48 15 -104 61 -300 115 -641 177 l-207 37 -22 51 -22 51 24 105 c12 58 23
119 23 135 -1 44 -14 105 -23 105 -5 0 -15 -21 -22 -47 -14 -48 -17 -300 -4
-351 6 -24 6 -24 -57 -17 -132 14 -340 -36 -493 -118 -93 -50 -132 -100 -142
-185 -12 -106 42 -204 240 -431 125 -144 193 -241 204 -294 4 -20 17 -34 39
-45 34 -16 149 -167 119 -156 -29 11 -15 -12 41 -66 58 -57 125 -149 184 -255
18 -33 47 -80 63 -104 31 -46 45 -110 24 -112 -7 -1 -19 -1 -28 0 -9 1 -22 -5
-29 -14 -11 -13 -10 -18 8 -31 18 -12 22 -25 22 -67 0 -52 0 -53 42 -72 29
-14 48 -31 58 -53 15 -34 29 -37 81 -17 13 5 31 -24 87 -132 171 -335 304
-677 555 -1423 153 -453 172 -536 237 -1019 22 -167 50 -342 61 -389 89 -378
149 -789 184 -1262 8 -113 15 -212 15 -220 0 -11 -14 -16 -51 -17 -45 -3 -50
-1 -44 16 7 24 -21 49 -37 33 -7 -7 -29 -12 -49 -12 -30 0 -38 -4 -43 -23 -11
-41 -6 -102 10 -126 16 -22 21 -23 87 -16 128 12 331 85 457 164 l35 21 -90
-2 c-72 -2 -90 -6 -90 -18 0 -11 9 -14 30 -12 23 3 27 1 18 -8 -6 -7 -40 -14
-76 -17 l-64 -5 -7 163 c-6 154 2 262 22 280 4 4 79 3 167 -2 88 -4 185 -8
216 -9 56 0 56 0 74 40 10 22 24 45 32 51 22 19 16 -24 -8 -55 -12 -15 -19
-29 -16 -32 2 -3 87 -9 188 -14 101 -5 211 -14 244 -20 33 -5 65 -10 70 -10 6
-1 -3 -7 -20 -15 -42 -19 -22 -18 90 5 119 24 234 26 300 4 l48 -17 -28 -15
c-31 -16 -101 -13 -198 9 -50 12 -62 11 -84 -1 -42 -24 -40 -39 7 -38 28 0 53
-8 80 -26 45 -30 59 -32 86 -11 19 14 19 14 -3 15 -12 0 -24 4 -27 9 -4 5 18
7 51 4 52 -4 62 -2 103 26 94 64 93 63 76 96 -19 37 -20 65 -2 130 13 52 52
145 59 145 2 0 -4 -35 -14 -77 -10 -43 -19 -111 -19 -150 0 -89 5 -91 115 -33
66 35 76 38 70 20 -9 -29 6 -24 43 14 18 19 63 50 100 69 72 37 230 93 239 84
3 -3 -40 -35 -95 -71 -95 -61 -138 -103 -130 -125 1 -6 37 19 78 56 164 145
284 220 375 230 38 5 35 2 -50 -47 -126 -74 -327 -220 -302 -220 17 0 77 36
168 101 99 71 169 108 204 109 31 0 90 -39 77 -52 -11 -11 -16 -9 -62 17 -23
13 -27 12 -55 -14 -16 -15 -52 -43 -80 -61 -80 -54 -119 -88 -138 -120 -31
-52 -2 -37 119 62 57 47 94 65 94 46 0 -5 -10 -18 -22 -29 -21 -17 -21 -18 -4
-19 10 0 39 17 65 39 51 43 130 86 139 76 4 -3 -2 -28 -11 -56 -10 -27 -15
-54 -12 -59 11 -18 57 -10 87 15 17 14 35 24 41 22 16 -5 21 -28 6 -25 -8 2
-13 -10 -14 -35 l-2 -37 59 2 c48 3 62 -1 73 -15 13 -18 15 -16 39 22 28 43
56 54 56 21 0 -11 12 -33 28 -50 38 -42 110 -54 267 -42 91 7 137 16 190 37
84 33 213 44 307 26 35 -7 123 -30 195 -53 107 -33 131 -44 122 -55 -9 -10 -8
-13 4 -13 9 0 24 12 34 26 10 14 26 35 36 45 16 18 19 18 43 3 22 -15 34 -16
86 -6 34 6 65 9 70 6 5 -3 -5 -31 -23 -62 -39 -71 -35 -67 -54 -48 -9 9 -29
16 -44 16 -25 0 -29 -5 -34 -36 -11 -69 -77 -106 -77 -44 0 28 -2 30 -27 24
-31 -7 -68 -43 -56 -54 4 -4 27 -14 51 -23 66 -26 137 -21 125 9 -8 22 17 74
37 74 24 0 67 -36 86 -72 25 -47 14 -57 -54 -51 -41 4 -62 2 -67 -7 -11 -18
13 -30 60 -30 35 0 47 6 80 40 43 44 68 49 103 21 26 -22 28 -31 7 -31 -8 0
-15 -9 -15 -20 0 -11 5 -20 10 -20 6 0 10 5 10 10 0 40 86 -35 95 -84 7 -34 6
-35 -32 -43 -72 -15 -176 -5 -333 33 -151 37 -159 38 -350 39 -211 1 -232 5
-305 61 l-35 26 -25 -30 c-32 -38 -65 -46 -111 -27 -20 8 -40 12 -45 10 -5 -3
-14 -25 -20 -48 -14 -52 -25 -67 -54 -67 -12 0 -105 25 -206 56 -250 75 -388
110 -559 141 -124 23 -174 27 -345 27 -226 1 -265 -5 -475 -69 -170 -52 -330
-80 -330 -57 0 4 15 13 33 20 17 7 43 21 57 32 l25 21 -40 -7 c-22 -4 -76 -23
-119 -42 -90 -39 -139 -48 -176 -33 -24 9 -24 10 -3 10 40 2 36 21 -4 21 -90
0 -159 -19 -197 -53 -60 -56 -44 -64 32 -16 38 24 58 30 91 27 23 -2 42 -7 42
-12 0 -5 -65 -28 -145 -51 -81 -23 -146 -39 -146 -34 0 4 -7 15 -15 23 -14 14
-21 13 -71 -5 -54 -20 -84 -20 -84 1 0 5 15 10 33 10 33 0 130 40 141 58 3 6
-29 0 -71 -13 -95 -29 -404 -147 -399 -152 5 -6 188 19 215 29 14 5 21 14 18
22 -5 11 1 12 31 4 37 -10 123 -7 155 7 14 6 17 3 15 -15 -4 -33 26 -49 50
-27 31 28 118 57 170 56 42 0 44 -1 22 -11 -82 -33 -110 -49 -110 -63 0 -20
-1 -20 178 24 345 87 847 191 1049 217 92 12 163 15 253 10 153 -7 241 -22
508 -87 253 -62 433 -100 442 -94 4 3 13 25 19 50 6 25 19 49 27 52 22 8 251
-12 527 -47 227 -28 405 -44 620 -54 l108 -6 -15 22 c-9 12 -16 41 -16 64 0
38 2 41 23 37 13 -3 41 2 62 11 48 20 46 21 35 -10 -16 -41 -12 -40 35 6 l45
44 62 -13 c35 -7 169 -35 298 -62 230 -49 236 -50 266 -84 17 -19 34 -35 38
-35 5 0 20 -9 34 -21 l27 -21 -240 7 c-211 6 -318 17 -375 39 -11 5 -15 -1
-17 -20 -1 -24 1 -26 35 -21 51 6 183 -9 328 -38 201 -41 252 -34 309 47 34
46 39 50 68 44 17 -4 48 -17 68 -31 33 -21 39 -22 50 -9 10 13 10 17 -2 25
-30 19 -97 32 -175 33 -75 1 -81 3 -73 19 8 14 5 17 -22 17 -51 0 -272 47
-449 96 -91 26 -212 57 -269 70 -57 12 -106 26 -109 29 -3 3 9 20 26 38 18 18
32 36 32 40 0 4 -17 7 -38 7 -42 0 -60 11 -85 51 -15 26 -6 23 236 -58 402
-135 634 -197 892 -240 156 -26 581 -26 744 0 62 10 123 22 134 26 21 8 21 8
-2 21 -15 8 -41 10 -71 6 -43 -6 -47 -5 -46 14 1 23 22 40 49 40 10 0 42 -22
71 -50 68 -64 88 -65 272 -4 181 60 275 69 332 31 46 -30 128 -72 162 -82 l25
-7 -22 24 -23 24 93 -24 c139 -35 280 -39 537 -13 131 13 262 21 335 19 l120
-3 -37 -17 c-30 -15 -66 -18 -185 -18 -148 -1 -148 -1 -125 -20 59 -49 135
-43 329 25 144 52 214 62 293 46 175 -36 266 -31 335 17 l41 29 49 -44 c60
-53 131 -94 205 -119 84 -28 246 -24 374 11 84 22 101 24 108 12 4 -8 24 -18
43 -21 19 -4 35 -11 35 -17 0 -10 -7 -13 -54 -24 -15 -3 -26 -8 -23 -11 2 -3
34 3 71 13 56 14 72 15 108 5 116 -34 145 -37 172 -19 46 31 32 38 -61 31 -81
-6 -89 -5 -107 14 l-19 21 50 -6 c33 -3 68 0 99 10 98 31 138 29 99 -3 -41
-34 2 -72 52 -47 49 25 134 39 286 44 166 7 180 13 131 64 -31 33 -47 35 -88
14 -35 -19 -36 -19 -36 0 0 12 -4 13 -19 5 -17 -8 -411 -11 -411 -2 0 1 11 30
25 63 78 192 133 544 161 1027 6 102 8 112 25 112 17 0 18 -3 9 -20 -14 -27 2
-25 28 3 29 31 28 34 -13 41 -24 5 -45 20 -70 51 l-36 44 21 29 c26 34 23 65
-5 70 -51 8 -126 38 -198 79 -60 35 -76 48 -64 55 19 10 56 -3 112 -42 l44
-31 16 37 c8 20 15 43 15 51 0 26 -29 71 -60 93 -17 12 -44 45 -60 73 -31 54
-33 54 -30 -2 1 -26 -2 -33 -13 -28 -14 5 -37 -10 -37 -24 0 -4 16 -10 35 -13
34 -7 105 -65 105 -87 0 -16 -75 27 -230 131 -80 54 -160 105 -179 115 -32 16
-33 17 -12 31 27 20 41 73 41 164 l0 76 -42 11 c-57 15 -108 51 -137 96 -13
20 -32 37 -42 37 -9 0 -28 13 -42 30 l-25 29 -11 -31 c-14 -39 -14 -71 -1 -84
8 -8 7 -25 -2 -58 -9 -34 -9 -52 -2 -64 6 -9 51 -40 99 -68 79 -45 135 -92
135 -112 0 -4 -5 -14 -10 -22 -9 -13 -12 -12 -22 5 -22 37 -56 60 -150 100
-77 33 -96 45 -108 72 -8 18 -20 31 -26 30 -25 -5 -654 378 -1864 1135 -806
504 -1511 937 -1617 991 -17 9 -33 13 -37 10 -4 -4 -19 7 -34 23 -34 38 -100
83 -178 122 -73 37 -118 79 -134 126 -6 19 -19 36 -28 39 -16 5 -168 69 -275
116 l-48 21 21 22 21 22 -58 31 -58 30 35 3 c43 4 150 -27 157 -45 8 -19 -2
-26 -39 -27 -23 -1 -34 -6 -36 -18 -2 -12 3 -18 14 -18 9 0 61 -22 115 -50 95
-48 151 -62 164 -40 10 16 -13 38 -53 51 -102 33 -142 51 -142 66 0 39 126
-16 334 -147 80 -50 151 -88 157 -84 7 4 9 23 5 54 -5 37 -3 50 10 61 15 12
16 10 10 -28 -9 -48 8 -122 30 -130 8 -3 25 -2 39 1 24 6 25 10 25 80 0 117
-5 131 -53 143 -44 12 -61 4 -49 -25 4 -10 1 -13 -7 -8 -8 5 -10 20 -6 45 6
35 5 36 -27 38 -18 2 -44 4 -58 5 -24 3 -25 1 -26 -59 0 -35 -4 -66 -8 -70
-17 -18 -36 33 -36 97 0 74 -13 95 -66 106 l-29 6 4 -48 c2 -37 -1 -50 -15
-61 -30 -22 -34 -16 -34 52 0 52 -4 69 -20 85 -35 35 -86 17 -78 -27 3 -21 -9
-43 -23 -43 -13 0 -39 63 -39 96 0 16 -5 24 -12 21 -7 -2 -23 4 -35 15 -27 25
-40 17 -49 -27 -9 -47 -32 -45 -40 3 -6 36 -8 38 -60 50 -30 7 -58 11 -63 7
-5 -3 -7 -29 -4 -58 4 -41 2 -57 -10 -69 -15 -14 -24 -13 -99 12 -103 35 -193
49 -186 29 3 -8 29 -24 59 -36 46 -19 50 -22 25 -23 -16 0 -57 5 -91 11 -34 7
-75 9 -91 4 -27 -6 -23 -9 46 -30 41 -13 91 -29 112 -35 48 -17 72 -7 64 24
-4 15 0 28 9 36 23 19 201 -63 221 -101 12 -24 20 -79 11 -79 -2 0 -50 16
-108 35 -171 59 -285 85 -363 85 -39 0 -78 -5 -86 -10 -11 -7 -7 -10 17 -10
37 0 83 -19 83 -33 0 -6 -32 -8 -85 -5 -47 3 -83 3 -80 -1 2 -4 29 -14 60 -21
67 -16 56 -25 -40 -34 -75 -7 -180 -37 -211 -61 -17 -13 -14 -14 32 -15 34 0
56 -5 64 -15 21 -25 4 -30 -93 -29 -96 0 -159 19 -171 51 -5 13 2 14 58 8 58
-6 66 -4 75 13 12 23 5 32 -26 32 -18 0 -23 6 -23 24 l0 23 47 -23 c48 -25
107 -31 133 -14 41 25 -78 55 -182 44 -47 -4 -68 -3 -68 5 0 6 -11 11 -24 11
-35 0 -40 16 -15 41 17 17 19 23 8 30 -19 12 -60 11 -79 -1 -12 -8 -10 -10 8
-10 20 0 23 -5 20 -27 -3 -26 -6 -28 -43 -25 -59 5 -92 -11 -100 -47 -6 -28
-9 -30 -38 -24 -18 3 -40 10 -49 14 -21 11 -32 -4 -23 -31 4 -11 2 -20 -4 -20
-6 0 -11 5 -11 11 0 11 -6 10 -62 -8 -10 -3 -18 -1 -18 5 0 5 11 13 24 16 13
3 35 22 50 41 l27 35 -80 0 c-74 0 -79 1 -74 20 4 13 0 20 -9 20 -8 0 -23 7
-34 16 -18 14 -13 15 54 10 43 -3 85 0 100 6 l27 11 -40 9 c-60 14 -131 4
-168 -22 -21 -16 -32 -20 -35 -11 -2 7 -28 23 -57 36 -29 12 -57 30 -62 38 -6
13 -16 14 -47 7 -35 -8 -41 -6 -58 15 -38 49 -187 99 -213 73 -13 -13 6 -28
35 -28 33 0 48 -16 31 -33 -8 -8 -19 -7 -41 6 -32 19 -50 16 -50 -9 0 -8 9
-14 20 -14 11 0 20 -4 20 -9 0 -4 -9 -20 -20 -34 -11 -14 -20 -28 -20 -31 0
-3 19 -6 43 -6 41 0 103 -23 142 -53 32 -25 11 -30 -32 -7 -22 11 -80 32 -129
46 -115 33 -182 66 -219 105 -34 36 -33 36 54 -10 61 -31 116 -42 142 -26 6 5
-18 17 -59 30 -86 27 -176 77 -149 83 10 2 44 -10 77 -27 84 -44 114 -41 133
12 11 29 -31 60 -121 92 -75 26 -124 55 -93 55 13 0 14 39 2 60 -17 26 -2 28
56 10 97 -30 234 -49 548 -75 272 -23 360 -33 450 -52 l30 -6 -25 -8 c-53 -15
-391 -2 -422 17 -5 3 -3 13 4 21 11 14 10 15 -7 10 -11 -3 -74 -16 -140 -28
-108 -21 -117 -24 -85 -31 19 -5 166 -13 325 -18 297 -10 359 -15 349 -31 -3
-6 -122 -8 -279 -7 -186 2 -278 -1 -285 -8 -14 -14 119 -24 316 -24 79 0 177
-5 219 -11 68 -10 75 -14 75 -34 0 -21 -2 -22 -44 -12 -46 10 -86 3 -70 -13
10 -10 312 -26 303 -16 -3 3 -39 13 -78 20 -81 16 -86 18 -77 42 5 13 13 15
39 10 68 -15 92 -16 107 -7 25 17 1 26 -70 26 -53 0 -74 4 -87 18 -16 16 -11
17 112 17 129 0 188 11 127 23 -16 3 -32 13 -35 21 -5 13 1 16 31 16 117 0
328 -42 316 -62 -3 -4 -39 -8 -80 -8 -41 0 -74 -4 -74 -9 0 -4 28 -14 63 -20
34 -7 71 -14 81 -16 27 -6 106 6 106 15 0 4 -18 10 -40 14 -39 6 -51 18 -29
32 6 3 52 1 103 -6 100 -14 136 -6 136 29 0 20 -63 31 -312 51 -138 12 -218
29 -276 60 l-37 19 33 -6 c25 -4 32 -2 32 11 0 9 -7 16 -16 16 -14 0 -16 8
-10 46 10 74 -30 99 -79 50 l-24 -24 -20 22 c-12 12 -21 34 -21 49 l0 27 143
1 142 2 -131 12 c-126 12 -174 25 -174 46 0 6 32 7 89 3 60 -5 90 -3 95 4 8
13 -12 18 -89 26 -27 2 -63 10 -80 18 -27 12 -14 14 130 18 169 5 166 3 75 43
l-35 15 40 1 c22 1 94 -8 161 -19 198 -32 304 -42 387 -35 43 4 77 9 75 11
-13 13 -789 84 -915 84 -22 0 -22 4 -25 112 l-3 112 -32 7 c-34 7 -63 25 -63
40 0 12 153 11 425 -1 369 -17 605 -47 875 -110 193 -46 260 -64 260 -72 0
-16 -77 -7 -159 17 -136 40 -131 42 -131 -70 0 -76 3 -95 14 -95 8 0 28 -12
45 -26 48 -40 66 -30 69 41 3 76 9 102 24 108 10 3 13 -13 14 -62 2 -72 18
-126 34 -116 6 4 19 -4 30 -17 l20 -23 20 24 c17 19 20 38 20 110 0 80 2 90
24 110 l25 23 34 -26 c60 -46 207 -86 207 -57 0 42 -165 97 -470 157 -254 50
-262 52 -255 64 8 13 -60 18 -685 45 -322 14 -601 29 -620 32 l-35 6 42 19
c56 24 213 45 453 58 294 16 332 20 326 37 -4 8 -6 19 -6 24 0 5 -25 9 -55 9
-30 0 -55 5 -55 10 0 6 18 10 40 10 34 0 42 4 55 30 9 17 22 30 30 30 7 0 41
-25 75 -56 51 -47 58 -58 45 -68 -8 -6 -18 -29 -23 -51 -8 -41 -26 -53 -59
-41 -13 6 -10 14 21 44 38 40 38 52 0 52 -16 0 -26 -10 -38 -39 -8 -22 -24
-45 -35 -50 -30 -16 -113 -13 -251 10 -151 24 -291 27 -340 7 -35 -15 -34 -15
70 -21 58 -3 238 -11 400 -17 162 -6 347 -13 410 -16 106 -5 113 -4 90 10 -17
10 -53 16 -110 16 -54 0 -94 6 -110 15 -23 13 -17 14 71 15 125 0 277 -16 358
-38 66 -17 83 -37 34 -37 -18 0 -29 -6 -31 -17 -3 -14 4 -18 32 -18 50 0 144
-23 300 -74 165 -54 243 -71 293 -61 50 9 42 13 -162 75 -154 47 -237 79 -210
80 6 0 48 -7 95 -15 158 -28 335 -85 634 -204 43 -18 80 -30 81 -29 1 2 8 14
15 27 14 28 2 41 -42 41 -35 0 -75 19 -83 38 -9 23 1 26 49 12 48 -13 66 -8
66 17 0 13 -9 15 -55 9 -36 -4 -64 -2 -78 6 l-22 12 25 7 c14 4 46 7 71 8 56
1 81 18 73 48 -6 21 -8 21 -27 8 -12 -8 -44 -15 -72 -15 -27 0 -62 -7 -77 -14
-33 -18 -34 -16 -9 33 24 45 66 66 118 58 66 -11 65 -29 -2 -22 -47 5 -64 3
-80 -10 -19 -15 -15 -15 60 -11 44 3 110 8 146 12 55 5 72 3 106 -14 49 -25
99 -82 125 -139 43 -97 49 -175 46 -573 l-3 -375 24 -38 c18 -29 21 -43 14
-59 -8 -17 -1 -29 43 -72 28 -29 56 -68 63 -88 8 -24 20 -38 35 -42 13 -3 49
-26 81 -51 32 -25 62 -45 66 -45 3 0 12 14 19 30 26 64 -6 200 -80 337 l-40
74 30 -21 c40 -29 88 -99 113 -168 16 -44 21 -89 25 -193 l4 -136 42 -20 c22
-11 88 -57 146 -102 57 -44 107 -81 111 -81 4 0 13 25 19 57 19 91 -5 177 -89
321 -17 28 -29 52 -27 52 8 0 140 -161 175 -213 l32 -48 -27 7 -27 7 5 -89 c5
-118 31 -173 102 -218 42 -28 173 -103 198 -114 4 -2 12 16 18 39 11 40 3 132
-17 186 -4 12 5 8 28 -13 19 -16 57 -47 84 -69 57 -44 84 -74 85 -94 0 -7 -25
10 -56 38 -31 29 -61 50 -68 48 -22 -7 -28 -74 -12 -130 31 -108 123 -196 233
-223 40 -10 21 10 -60 65 -78 53 -124 97 -114 108 4 4 23 -1 43 -10 34 -17 35
-17 32 0 -2 10 -19 23 -38 29 -31 10 -35 16 -35 45 0 24 5 35 18 37 12 3 17
-3 17 -21 0 -13 13 -41 30 -62 21 -26 28 -44 24 -60 -4 -17 -1 -25 13 -29 10
-3 36 -24 58 -47 l38 -41 19 24 c9 12 18 33 18 44 0 12 3 36 6 53 6 29 4 31
-21 31 -21 0 -26 4 -21 17 4 11 -4 27 -25 49 -19 20 -27 34 -20 38 16 10 61
-15 85 -47 19 -26 21 -42 21 -177 0 -144 1 -149 25 -175 14 -15 54 -41 90 -57
36 -16 74 -37 85 -47 11 -10 33 -18 48 -19 47 -3 28 28 -30 50 -29 10 -75 40
-103 65 -43 39 -51 50 -48 77 2 23 9 32 26 34 19 3 22 -1 22 -27 0 -24 12 -40
60 -83 33 -29 66 -53 72 -53 15 0 26 38 27 97 1 26 4 49 9 52 4 2 22 -13 40
-35 31 -36 32 -40 18 -66 -7 -16 -15 -64 -17 -109 l-4 -81 45 -25 c25 -14 71
-46 102 -72 31 -25 59 -46 61 -46 3 0 8 30 12 68 l8 67 18 -68 c35 -125 66
-167 123 -167 41 0 30 17 -18 29 -40 10 -63 31 -49 45 14 14 44 4 83 -29 23
-19 53 -35 66 -35 20 0 24 5 24 30 0 17 -9 48 -20 69 -20 41 -18 51 12 51 14
0 18 -5 13 -19 -6 -19 18 -36 36 -25 5 3 9 -4 9 -16 0 -33 16 -56 49 -69 16
-7 32 -22 35 -34 9 -34 -3 -34 -32 -1 -61 69 -62 68 -62 -45 0 -77 3 -101 13
-101 8 0 36 -16 63 -35 30 -22 61 -35 80 -35 27 0 31 3 31 29 0 27 -3 29 -55
34 -57 6 -90 26 -77 47 5 9 15 4 32 -14 26 -29 35 -31 64 -16 23 13 24 41 3
81 -17 33 -14 45 10 36 29 -11 45 -54 60 -154 9 -55 20 -112 25 -126 11 -29
54 -65 88 -73 12 -4 20 -10 17 -15 -3 -5 4 -9 14 -9 27 0 32 18 32 123 1 115
14 99 40 -46 20 -111 30 -141 57 -173 25 -29 74 -61 106 -69 25 -7 27 -5 27
28 0 19 -7 54 -15 77 -8 23 -15 57 -15 74 l1 31 19 -35 c11 -19 31 -71 46
-115 38 -113 57 -148 105 -189 53 -45 67 -36 71 45 4 85 23 68 24 -23 l2 -77
53 -47 c30 -25 58 -50 63 -54 4 -5 1 -19 -8 -31 -20 -29 -20 -56 -1 -93 19
-35 19 -35 -2 -30 -15 4 -18 -2 -18 -45 0 -46 2 -52 27 -60 15 -5 51 -27 80
-49 80 -59 112 -64 116 -18 2 26 -31 52 -127 100 -48 25 -52 29 -46 54 7 29
23 52 35 52 5 0 6 -8 3 -18 -2 -10 5 -29 16 -43 17 -21 22 -22 40 -11 19 11
21 10 21 -9 0 -11 5 -29 11 -40 9 -17 17 -19 55 -13 35 5 49 3 64 -11 11 -10
23 -16 26 -12 3 3 8 32 11 64 l5 58 -54 28 c-29 15 -93 57 -143 93 -49 36
-111 80 -138 97 -45 31 -47 34 -41 69 5 31 -2 54 -35 126 -23 49 -41 98 -41
110 0 12 18 38 40 58 50 46 58 73 33 114 -16 28 -90 72 -156 94 -13 4 -17 12
-12 26 5 15 -3 29 -32 55 -21 19 -41 35 -44 35 -18 0 -17 -35 1 -57 29 -37 27
-73 -4 -73 -13 0 -31 -3 -40 -6 -12 -5 -16 0 -16 21 0 41 -52 85 -100 85 -28
0 -43 -6 -53 -21 l-15 -20 -16 23 c-16 22 -15 23 7 33 14 6 38 25 55 43 16 17
38 32 48 32 10 0 35 -16 55 -36 24 -23 43 -34 53 -31 28 11 17 31 -26 51 -23
11 -88 64 -144 118 -100 95 -134 118 -176 118 -14 0 -3 -13 41 -46 33 -25 71
-59 83 -76 19 -28 20 -33 7 -56 -16 -29 -39 -40 -39 -19 0 8 -13 17 -30 21
-17 3 -29 9 -28 13 2 5 -10 23 -26 41 -33 36 -76 44 -76 14 0 -41 -54 -57 -86
-25 -16 16 -15 18 14 28 44 14 62 35 82 96 l18 53 -61 74 c-69 83 -116 114
-142 92 -14 -11 -10 -17 32 -45 64 -43 94 -72 122 -118 26 -43 23 -58 -14 -83
-26 -17 -29 -17 -59 0 -36 19 -83 85 -53 73 40 -15 5 28 -41 53 -19 9 -30 9
-53 0 -16 -7 -29 -16 -29 -19 0 -4 25 -29 55 -55 70 -60 99 -108 34 -55 -24
19 -74 59 -110 88 -65 52 -67 54 -62 91 8 55 -1 74 -26 58 -15 -9 -24 -8 -46
6 -38 25 -26 41 29 39 29 -2 45 1 41 7 -3 6 -11 10 -17 10 -6 0 -31 18 -55 41
-42 38 -58 43 -58 16 0 -6 -14 -14 -32 -19 -40 -10 -50 -25 -30 -46 14 -14 19
-12 52 17 29 25 40 30 51 20 21 -17 17 -28 -11 -35 -14 -3 -25 -12 -25 -19 0
-7 -7 -19 -16 -26 -14 -11 -22 -7 -57 33 -23 25 -76 72 -117 103 -78 60 -180
154 -180 166 0 25 58 -18 140 -102 122 -126 133 -128 178 -35 20 41 41 70 52
73 17 4 10 16 -46 82 -75 86 -118 121 -151 121 -32 0 -29 -26 4 -35 38 -9 163
-133 156 -153 -12 -34 -55 -82 -72 -82 -33 0 -33 27 0 34 26 5 42 26 20 26 -6
0 -30 18 -56 40 -27 23 -51 37 -60 34 -18 -7 -20 -24 -2 -24 6 0 28 -14 47
-30 l35 -30 -35 11 c-42 14 -59 28 -114 94 -40 47 -35 53 11 12 23 -21 53 -17
53 6 0 8 -13 17 -29 20 -16 3 -40 9 -55 13 -21 5 -32 0 -57 -27 -25 -26 -32
-30 -40 -18 -13 21 -14 17 56 119 l64 93 -42 27 c-23 15 -57 46 -76 70 -33 41
-120 105 -130 95 -3 -3 23 -34 56 -68 133 -136 145 -193 51 -252 -25 -16 -28
-16 -28 -1 0 9 -23 41 -50 71 -28 30 -50 59 -50 63 0 4 16 6 36 4 26 -3 35 -1
30 7 -4 6 -13 11 -20 11 -7 0 -30 11 -50 25 -20 13 -36 20 -36 15 0 -5 5 -12
10 -15 26 -16 8 -27 -34 -21 -36 6 -45 4 -50 -10 -7 -18 28 -53 96 -96 21 -13
38 -28 38 -35 0 -6 16 -21 35 -33 19 -12 35 -25 35 -29 0 -22 -18 -16 -62 22
-28 23 -80 66 -116 96 -63 50 -66 55 -67 97 0 41 2 45 32 55 18 6 50 32 72 58
l40 48 -67 89 c-73 96 -140 148 -186 142 -25 -3 -21 -8 50 -63 78 -61 158
-149 151 -168 -2 -6 -15 -19 -29 -30 -33 -25 -46 -18 -150 79 -43 41 -86 74
-95 74 -15 0 -14 -2 2 -14 18 -13 17 -14 -15 -31 -33 -17 -34 -18 -12 -26 24
-9 29 -28 11 -46 -7 -7 4 -19 38 -41 63 -41 90 -70 98 -107 l7 -30 -17 23 c-9
13 -54 47 -100 77 -96 62 -119 90 -121 153 -1 32 -7 48 -20 55 -11 6 -47 34
-81 64 -48 42 -69 54 -90 51 -38 -4 -40 -25 -2 -33 36 -8 129 -93 129 -119 0
-20 -46 9 -175 112 -105 85 -101 80 -87 94 8 8 8 19 -3 45 -14 33 -14 33 18
47 18 7 60 44 94 82 61 68 62 68 71 44 12 -31 46 -62 135 -124 81 -57 100 -83
91 -122 -8 -32 -31 -64 -48 -64 -6 0 -17 9 -24 20 -8 13 -23 20 -41 20 -24 0
-40 12 -82 60 -29 33 -56 60 -61 60 -30 0 107 -146 147 -156 37 -9 31 -27 -6
-19 -22 5 -29 4 -25 -4 4 -6 16 -11 27 -11 10 0 19 -6 19 -13 0 -8 8 -22 19
-31 18 -16 20 -15 56 26 66 76 76 130 31 167 -22 18 -20 31 3 31 33 0 33 17 1
24 -52 10 -36 29 20 24 27 -3 47 -1 44 4 -3 4 -11 8 -18 8 -16 0 -66 38 -66
50 0 4 14 3 31 -3 28 -11 33 -10 53 16 24 30 44 34 84 13 38 -20 69 -55 157
-181 43 -60 95 -128 116 -150 29 -31 38 -47 36 -70 -2 -24 2 -29 16 -27 14 2
17 -5 17 -48 0 -32 4 -49 10 -45 15 9 12 149 -4 226 -8 37 -23 84 -34 105 -25
48 -185 230 -190 216 -2 -6 1 -19 7 -30 9 -16 6 -19 -19 -19 -25 0 -27 3 -19
18 12 24 12 66 -1 74 -6 4 -22 -1 -36 -10 -26 -17 -54 -14 -54 4 0 6 7 8 16 4
10 -4 22 1 29 11 11 15 6 23 -36 63 -46 43 -50 45 -67 29 -25 -22 -29 -21 -35
12 -2 15 -11 42 -18 60 -11 27 -11 36 0 54 12 19 11 23 -10 39 -33 25 -39 24
-33 -9 4 -19 -1 -35 -14 -52 l-20 -25 -26 28 c-14 15 -34 27 -46 27 -11 0 -20
7 -20 15 0 8 6 15 14 15 7 0 19 -7 26 -15 14 -17 40 -20 40 -5 0 6 -4 10 -8
10 -4 0 -16 15 -26 33 -10 17 -28 39 -39 48 -20 16 -19 17 24 12 33 -4 48 -1
58 11 12 14 28 2 140 -106 69 -66 168 -155 219 -197 50 -41 92 -81 92 -89 0
-7 10 -36 21 -63 15 -34 27 -49 40 -49 15 0 19 -8 19 -39 0 -48 10 -101 19
-101 4 0 15 41 25 90 25 121 18 247 -18 349 -100 283 -355 568 -567 632 -103
31 -213 25 -299 -18 -36 -18 -81 -45 -100 -61 l-35 -30 -5 -163 c-5 -145 -8
-170 -29 -214 -22 -47 -24 -49 -34 -27 -17 36 -77 42 -77 7 0 -7 38 -38 84
-69 95 -63 168 -138 209 -214 l28 -52 -28 -11 c-15 -5 -42 -24 -59 -40 -23
-23 -39 -30 -60 -27 l-29 3 29 15 c16 8 31 20 33 26 4 13 -191 202 -235 227
-60 34 -32 -3 61 -78 50 -42 107 -94 125 -116 l34 -39 -56 0 c-56 0 -56 0 -56
30 0 36 -54 100 -104 124 -38 18 -92 21 -101 7 -6 -11 89 -113 122 -130 20
-10 53 -6 53 6 0 3 -21 25 -47 49 -26 24 -44 47 -40 51 11 10 107 -94 107
-115 0 -11 -7 -25 -16 -33 -14 -11 -9 -16 41 -41 57 -29 76 -51 58 -69 -14
-14 -164 91 -238 167 -59 61 -160 215 -160 244 0 8 -20 25 -44 37 -54 27 -71
43 -51 44 33 3 46 -5 83 -47 40 -46 57 -54 57 -29 0 8 -13 21 -30 30 -32 17
-39 42 -14 52 9 3 27 -5 44 -22 17 -16 33 -26 36 -22 8 8 -122 133 -233 225
-44 37 -78 71 -75 77 3 5 5 24 3 41 -1 18 4 36 13 43 13 11 34 -3 133 -85 141
-117 165 -141 215 -218 44 -69 46 -76 16 -76 -35 0 -88 -37 -88 -60 0 -11 2
-20 5 -20 4 0 33 19 66 42 69 49 69 49 16 158 -45 93 -152 197 -248 243 -41
19 -89 38 -106 42 l-33 7 6 106 c3 59 7 126 10 150 l5 42 67 -6 c37 -4 71 -7
76 -8 14 -2 54 62 66 103 14 50 12 130 -4 166 l-14 30 -10 -27 c-6 -14 -8 -50
-5 -80 2 -29 0 -66 -6 -82 -11 -27 -12 -28 -30 -12 -11 10 -49 24 -86 31 -67
14 -130 45 -108 52 6 2 25 -3 42 -11 39 -21 58 -20 70 3 11 20 5 31 -15 31 -7
0 -25 5 -41 12 l-28 11 29 6 c16 3 31 12 34 18 4 13 -3 17 -50 27 -38 9 -35
22 7 30 40 8 44 20 15 38 -52 33 4 38 85 7 30 -11 61 -18 68 -16 20 8 -122 68
-175 74 l-50 6 17 -26 c16 -24 16 -28 0 -62 -10 -19 -21 -38 -26 -41 -5 -3
-38 6 -73 20 -75 30 -241 51 -328 41 -119 -14 -198 14 -198 69 0 19 -8 27 -35
36 -44 15 -277 28 -342 20 l-48 -6 50 -7 c28 -3 82 -9 120 -13 39 -3 101 -13
139 -21 103 -23 63 -35 -69 -22 -96 10 -127 8 -114 -6 5 -4 206 -38 304 -51
46 -6 48 -7 25 -16 -36 -14 -163 -4 -356 27 -127 21 -181 26 -219 20 l-50 -8
35 -15 c20 -9 84 -18 145 -22 110 -7 192 -28 150 -38 -46 -10 -341 6 -392 22
-57 18 -73 41 -23 34 19 -3 29 -1 27 6 -2 6 -28 12 -58 14 l-54 2 24 -19 25
-19 -55 -6 c-70 -9 -439 -3 -439 6 0 21 53 28 209 28 102 0 172 4 176 10 4 6
-6 10 -22 10 -56 0 -58 14 -6 63 26 25 49 42 51 37 4 -10 160 -1 182 10 10 6
1 12 -30 20 -47 13 -79 10 -235 -24 -93 -20 -225 -36 -300 -36 -42 0 -56 -3
-45 -10 8 -5 69 -10 135 -11 70 0 135 -6 155 -13 l35 -13 -51 -11 c-29 -6 -88
-8 -140 -5 -72 5 -96 2 -121 -11 -31 -16 -32 -15 -65 14 -41 38 -122 77 -177
86 -22 4 -38 11 -35 16 3 5 97 6 227 2 223 -7 334 -1 306 17 -8 5 -35 9 -61 9
-27 0 -48 5 -48 10 0 6 5 10 12 10 6 0 9 2 7 5 -3 2 -63 -2 -135 -11 -169 -20
-493 -20 -643 0 -62 8 -116 17 -118 20 -14 14 220 17 415 6 214 -12 356 -9
418 10 20 6 23 9 9 9 -40 2 -123 50 -249 145 -166 126 -205 141 -270 111 -40
-19 -37 -32 8 -37 16 -2 31 -8 33 -15 3 -9 -4 -10 -26 -3 -24 7 -36 4 -53 -10
-23 -18 -22 -18 47 -13 45 4 73 11 78 20 10 17 51 -5 199 -107 111 -76 112
-72 -33 -86 -89 -8 -149 6 -187 44 -16 15 -18 18 -5 8 22 -18 23 -18 29 -1 5
13 -1 24 -20 40 l-27 22 21 14 c19 12 3 14 -132 11 -100 -2 -172 -9 -208 -19
-56 -16 -145 -18 -273 -7 -64 6 -67 7 -53 23 21 23 20 32 -1 25 -15 -5 -15 -3
1 10 22 18 91 22 101 6 3 -5 -2 -10 -12 -10 -10 0 -25 -5 -33 -11 -11 -7 28
-9 133 -6 164 5 214 20 102 32 -56 6 -64 10 -49 18 12 7 66 10 139 9 125 -3
175 3 175 19 0 11 -136 77 -215 104 -73 26 -199 31 -255 11 -25 -9 -49 -18
-55 -19 -5 -1 -12 24 -15 56 -4 42 -11 63 -25 73 -29 22 -32 18 -28 -43 5 -80
-5 -92 -52 -65 -40 24 -49 27 -40 12 3 -5 -4 -19 -16 -31 -23 -23 -60 -20 -90
7 -24 21 -42 18 -34 -7 8 -23 -1 -69 -13 -69 -5 0 -8 10 -8 23 1 19 -4 22 -34
22 -31 0 -35 -3 -32 -24 4 -26 -26 -101 -40 -101 -4 0 -8 -5 -8 -10 0 -7 31
-10 86 -8 63 2 88 0 91 -9 8 -23 -150 -17 -208 8 -56 24 -120 22 -180 -5 -33
-15 -32 -16 51 -11 81 5 124 -4 106 -22 -4 -4 -42 -7 -84 -6 -51 2 -92 -3
-119 -13 -39 -14 -43 -19 -43 -50 0 -19 -7 -48 -15 -64 -16 -31 -80 -73 -130
-86 l-30 -8 30 -6 c25 -4 31 -10 33 -36 l3 -32 63 21 c66 21 109 18 120 -8 11
-31 -38 -48 -137 -47 -67 1 -99 -3 -117 -14 -23 -14 -11 -15 135 -9 174 6 213
-2 146 -29 -31 -12 -74 -16 -171 -16 -145 0 -130 8 -144 -77 -5 -31 -4 -33 22
-33 16 0 116 16 223 35 107 19 204 37 216 39 18 2 21 0 13 -14 -14 -26 17 -34
49 -13 l26 17 -25 8 c-25 7 -24 8 2 4 16 -2 33 3 39 10 22 27 30 14 10 -15
-11 -15 -18 -31 -14 -35 12 -12 60 -6 143 19 102 30 151 32 174 6 17 -19 16
-20 -36 -25 -29 -3 -149 -10 -266 -16 -222 -11 -311 -20 -448 -46 l-81 -16 -1
-44 c-2 -45 5 -53 26 -32 7 7 61 15 135 19 92 5 133 11 167 27 l45 20 -34 1
c-19 1 -85 -6 -147 -15 -67 -10 -124 -13 -141 -9 -22 7 7 14 127 32 177 27
482 40 600 25 l75 -9 -65 -2 c-36 -1 -119 -3 -185 -4 -88 -2 -129 -8 -155 -20
l-35 -17 40 5 c22 2 175 5 340 7 l300 3 7 -49 c8 -55 -1 -81 -31 -89 -17 -4
-19 -1 -14 28 6 40 -29 80 -62 70 -11 -4 -76 -10 -145 -15 -69 -4 -133 -11
-142 -15 -13 -5 -18 -19 -18 -44 -1 -20 -7 -54 -15 -76 -13 -36 -13 -41 3 -53
18 -14 66 -9 89 9 21 18 16 46 -8 45 -12 -1 -24 4 -26 10 -2 6 7 10 19 10 17
-1 24 6 28 28 3 16 10 31 17 33 8 3 13 -16 15 -63 l3 -68 48 -1 c26 -2 50 1
53 6 3 5 1 9 -5 9 -6 0 -5 16 4 40 16 46 10 74 -14 65 -9 -4 -22 -9 -28 -12
-25 -10 -13 14 12 25 43 20 54 15 60 -25 15 -99 21 -118 36 -114 7 2 29 4 47
3 42 0 49 14 23 42 -23 25 -19 36 14 36 20 0 21 -3 15 -46 l-7 -46 47 6 c50 7
80 1 80 -16 0 -6 -49 -7 -134 -3 -140 8 -206 -2 -206 -31 0 -12 9 -14 47 -8
74 11 144 8 193 -7 45 -14 44 -14 -75 -16 -66 -1 -194 -8 -285 -14 -91 -7
-196 -13 -234 -13 -45 -1 -71 -5 -73 -13 -4 -10 80 -12 374 -11 258 1 389 -2
413 -9 28 -9 -22 -11 -235 -10 -298 2 -331 -2 -390 -54 -71 -63 -37 -71 180
-44 151 19 197 19 241 0 46 -19 69 -70 60 -137 l-7 -48 31 0 c16 0 30 -5 30
-11 0 -12 -413 -9 -425 3 -4 4 0 14 9 23 22 22 21 87 -2 115 -18 22 -19 23
-153 12 -74 -7 -195 -14 -269 -17 -74 -4 -186 -13 -249 -21 -62 -8 -116 -12
-119 -9 -3 3 -7 52 -8 109 l-1 104 68 7 c37 4 73 4 79 0 19 -12 -1 -25 -39
-25 -20 0 -46 -7 -57 -16 -19 -15 -19 -15 1 -10 11 2 62 10 112 17 52 7 98 18
104 25 14 18 0 18 -36 2 -31 -14 -58 3 -37 24 32 32 -11 36 -118 13 -36 -8
-70 -14 -75 -15 -7 0 -8 34 -2 103 4 56 6 188 2 292 l-6 190 36 19 c45 25 44
36 -4 36 l-38 0 -7 -72 c-9 -98 -25 -541 -27 -703 0 -71 -4 -138 -8 -148 -6
-17 -8 -17 -20 -3 -8 9 -52 28 -100 42 -99 30 -153 56 -184 87 l-21 21 44 11
c32 8 46 17 48 30 2 11 11 28 20 38 14 16 12 17 -30 17 -50 0 -148 -26 -148
-40 0 -5 26 -6 58 -3 39 4 54 2 47 -5 -5 -6 -23 -12 -40 -14 -24 -2 -30 -8
-29 -25 1 -30 -7 -29 -80 12 -67 37 -97 43 -115 21 -9 -10 0 -20 40 -45 28
-17 50 -33 48 -35 -2 -3 -29 0 -58 6 -61 11 -120 37 -141 64 -13 15 -11 16 36
9 42 -5 52 -4 58 10 4 12 -3 20 -29 31 -19 7 -38 14 -43 14 -5 0 -16 7 -23 16
-12 15 -11 16 9 10 22 -7 23 -6 20 40 -2 40 0 49 15 52 15 3 18 0 12 -17 -16
-53 45 -150 78 -123 24 20 106 35 222 41 l120 6 5 34 c3 19 10 36 16 38 8 3
10 -24 6 -91 -2 -51 -1 -115 2 -140 l7 -46 43 0 43 0 12 123 c12 128 24 449
41 1082 10 386 26 644 58 928 20 181 24 169 -72 211 -32 14 -59 26 -60 26 0 0
-1 -204 -2 -453 0 -456 -9 -668 -45 -1051 -10 -115 -19 -212 -19 -214 0 -2 -6
1 -14 7 -8 7 -30 9 -58 5 -36 -5 -46 -3 -51 10 -8 21 9 30 62 31 29 0 46 5 49
14 4 12 -8 13 -67 7 -73 -6 -131 -27 -131 -47 0 -7 11 -8 30 -4 41 9 38 -1 -6
-20 -47 -20 -93 -19 -101 1 -5 13 -8 13 -27 -4 -60 -55 -191 -89 -230 -59 -17
12 -10 15 75 27 52 7 103 17 113 23 19 9 18 11 -9 33 l-29 23 25 5 c13 3 41 8
62 11 48 8 38 25 -14 25 -45 0 -51 13 -11 29 15 6 42 21 61 33 l33 21 -6 -21
c-12 -36 27 -28 41 8 8 22 18 30 37 30 34 0 42 -16 11 -24 -14 -4 -34 -21 -45
-39 -23 -37 -26 -54 -6 -38 7 6 20 9 29 5 8 -3 18 -1 21 5 5 7 15 7 33 0 30
-11 66 -5 100 17 19 12 21 17 11 39 -6 13 -20 27 -31 31 -17 5 -16 8 13 25 17
11 30 24 28 30 -4 13 -5 13 -52 -6 -22 -9 -94 -23 -160 -31 -67 -7 -131 -16
-143 -19 -27 -6 -30 -30 -5 -44 15 -9 15 -12 2 -21 -24 -16 -37 -12 -60 20
-27 38 -45 38 -162 0 -173 -55 -298 -76 -298 -49 0 6 60 135 134 288 172 354
235 504 306 721 26 79 30 85 58 88 27 3 31 9 56 85 38 114 101 256 222 499 57
114 99 208 95 208 -5 0 -27 -20 -49 -44z m1548 -1476 c0 -5 -2 -10 -4 -10 -3
0 -8 5 -11 10 -3 6 -1 10 4 10 6 0 11 -4 11 -10z m-1545 -320 c4 -6 -11 -10
-39 -10 -25 0 -48 -4 -51 -10 -3 -5 -11 -10 -17 -10 -6 0 -3 9 7 20 19 21 89
28 100 10z m4125 -918 c0 -4 14 -13 30 -19 36 -13 43 -49 8 -37 -21 6 -20 5 5
-25 15 -18 27 -41 27 -51 0 -11 10 -20 28 -23 44 -9 152 -127 116 -127 -13 0
-131 90 -173 131 -51 51 -74 99 -65 134 6 23 24 36 24 17z m811 -994 c22 -44
39 -82 36 -84 -2 -2 -16 10 -32 26 -33 34 -45 38 -45 12 0 -10 16 -26 37 -37
40 -22 145 -121 162 -154 10 -18 5 -17 -41 10 -75 44 -135 95 -165 140 -23 35
-25 45 -18 92 4 28 8 60 8 69 2 28 16 10 58 -74z m1709 -1048 c14 -19 17 -30
9 -30 -17 0 -49 30 -49 47 0 22 17 15 40 -17z m238 -277 c17 -13 32 -31 32
-39 0 -23 -12 -15 -55 34 -41 47 -35 48 23 5z m154 -543 c4 0 8 -7 8 -15 0 -8
-6 -15 -13 -15 -18 0 -41 45 -31 61 5 9 10 7 17 -9 6 -12 14 -22 19 -22z"/>
<path d="M7385 8214 c-105 -15 -219 -59 -211 -80 3 -9 -2 -14 -13 -14 -36 0
-51 -12 -51 -39 0 -15 -9 -92 -20 -171 -40 -286 -79 -773 -80 -985 l0 -61 34
4 c19 2 114 -6 212 -18 99 -12 215 -23 259 -23 l80 -2 3 28 c2 16 9 30 16 33
8 3 72 -18 144 -45 149 -58 252 -79 295 -62 15 6 27 14 27 18 0 19 -115 41
-174 34 -53 -7 -65 -4 -104 17 -24 13 -49 33 -55 43 -9 14 -24 19 -60 19 -38
0 -53 5 -74 26 -14 14 -23 28 -20 30 6 6 133 -43 162 -62 27 -19 34 -17 28 9
-9 36 -32 55 -75 62 -23 4 -54 19 -72 36 -42 38 -19 38 74 -2 54 -23 78 -28
93 -22 19 9 19 10 -9 30 -16 11 -64 33 -106 48 -43 15 -85 34 -95 42 -16 13
-14 14 19 8 21 -3 62 -17 93 -30 31 -14 62 -25 70 -25 38 0 -1 65 -44 75 -30
6 -59 31 -48 41 7 8 316 -167 385 -218 77 -57 139 -122 153 -162 12 -32 14
-34 95 -46 59 -8 88 -9 102 -1 16 9 21 7 25 -9 3 -11 11 -20 19 -20 10 0 14
21 16 90 1 50 11 166 22 258 33 277 23 392 -44 519 -20 37 -34 68 -32 71 9 8
65 -29 93 -61 17 -19 59 -76 94 -128 65 -95 168 -214 177 -205 7 8 -69 132
-136 222 -94 126 -179 204 -223 204 -15 0 -59 39 -59 53 0 4 9 3 19 -2 14 -8
22 -7 32 6 12 14 12 17 0 21 -7 2 -35 26 -62 53 -27 27 -56 49 -65 49 -10 0
-14 6 -10 15 12 33 -93 120 -117 96 -8 -8 -5 -11 9 -11 20 0 44 -17 44 -31 0
-4 -7 -10 -16 -13 -10 -4 -35 13 -74 50 -44 41 -64 54 -78 50 -12 -4 -19 -16
-19 -30 0 -19 11 -29 61 -52 85 -40 202 -160 299 -305 l77 -116 6 -152 c5
-129 3 -156 -10 -176 -22 -34 -49 -34 -40 0 5 20 1 27 -21 37 -14 6 -63 59
-108 117 -156 202 -293 328 -422 387 -46 21 -68 25 -114 22 -55 -4 -56 -3 -56
22 0 20 -5 26 -28 28 -15 2 -40 -3 -56 -11 -26 -13 -28 -13 -24 4 4 13 -4 20
-34 28 -21 6 -43 11 -50 11 -6 0 -15 5 -19 11 -5 8 11 9 55 4 52 -6 65 -4 82
11 10 9 19 20 19 24 0 4 -55 10 -122 14 -68 3 -136 10 -153 15 -26 7 -20 9 42
15 67 7 225 1 267 -11 16 -4 15 -8 -13 -37 -40 -41 -39 -56 2 -56 17 0 73 -13
122 -29 50 -16 91 -27 93 -26 2 2 -1 12 -7 22 -12 24 -68 49 -144 63 -46 9
-56 14 -47 25 21 25 57 25 125 0 37 -14 69 -24 72 -22 9 10 -79 74 -124 90
-99 35 -275 43 -468 21 l-40 -4 44 20 c111 52 235 49 446 -11 58 -16 115 -29
126 -29 33 0 16 24 -24 33 -55 13 -48 37 11 37 44 1 46 2 27 16 -11 8 -45 28
-75 45 -30 16 -68 41 -85 55 l-30 25 41 -4 c24 -3 70 -23 115 -49 139 -84 169
-93 169 -50 0 32 -175 106 -325 137 -80 16 -254 27 -310 19z"/>
<path d="M5260 8191 c0 -5 6 -13 13 -19 7 -6 24 -34 37 -62 13 -27 27 -50 31
-50 19 0 16 19 -7 54 -17 24 -24 47 -21 62 4 21 0 24 -24 24 -16 0 -29 -4 -29
-9z"/>
<path d="M4897 8083 c-45 -281 -66 -573 -69 -978 -3 -283 -2 -291 19 -330 l22
-40 1 235 c0 261 15 728 30 979 10 160 9 210 -3 134z"/>
<path d="M5291 7893 c-1 -7 33 -103 74 -213 42 -111 83 -237 93 -281 9 -43 21
-79 26 -79 5 0 18 -8 29 -17 20 -17 20 -17 12 2 -4 11 -38 110 -75 221 -59
175 -158 402 -159 367z"/>
<path d="M5397 7870 c-6 -27 -2 -38 23 -67 42 -47 81 -130 120 -251 32 -100
81 -191 108 -200 8 -2 1 21 -18 57 -17 34 -51 116 -76 184 -48 129 -102 246
-133 286 l-18 24 -6 -33z"/>
<path d="M8835 7225 c28 -95 115 -198 196 -234 44 -20 47 -23 51 -66 7 -57 47
-111 89 -120 17 -4 33 -5 35 -2 14 14 -56 119 -118 178 -45 43 -74 80 -83 105
-9 27 -20 40 -35 42 -13 2 -34 24 -56 57 -31 49 -67 85 -86 85 -4 0 -1 -20 7
-45z"/>
<path d="M7185 6750 c-15 -15 -23 -30 -18 -33 9 -5 82 7 87 15 1 1 -8 13 -20
24 l-22 22 -27 -28z"/>
<path d="M7415 6734 c-47 -13 -27 -19 73 -22 59 -2 118 1 132 7 25 10 25 10
-6 10 -17 1 -64 3 -105 5 -41 3 -83 2 -94 0z"/>
<path d="M8276 6710 c5 -5 56 -21 114 -35 107 -26 214 -33 225 -15 3 6 5 10 3
10 -2 0 -62 11 -133 25 -135 26 -227 33 -209 15z"/>
<path d="M7126 6473 c-13 -13 -5 -23 18 -23 14 0 28 -4 31 -10 6 -10 55 16 55
29 0 8 -95 12 -104 4z"/>
<path d="M6190 6390 c-11 -7 -15 -31 -16 -99 l-1 -90 53 -7 c80 -10 79 -10 79
99 l1 95 -29 6 c-42 8 -70 7 -87 -4z"/>
<path d="M5365 6370 c-37 -40 -29 -179 11 -194 7 -3 22 7 34 21 25 33 28 137
4 171 -19 27 -26 27 -49 2z"/>
<path d="M6334 6375 c-12 -30 -8 -152 4 -173 14 -20 71 5 78 35 7 25 -2 129
-12 144 -9 15 -64 10 -70 -6z"/>
<path d="M6446 6298 c-4 -55 -3 -95 3 -101 14 -14 76 1 97 24 14 15 20 40 22
95 l4 74 -59 0 -60 0 -7 -92z"/>
<path d="M6600 6290 l0 -97 42 -6 c24 -3 44 -4 45 -3 6 5 8 186 3 186 -3 1
-24 5 -47 9 l-43 8 0 -97z"/>
<path d="M6744 6369 c-14 -15 -18 -36 -18 -87 0 -90 13 -112 65 -112 23 0 41
5 44 13 2 6 5 51 7 100 l3 87 -27 0 c-15 0 -30 5 -33 10 -9 15 -20 12 -41 -11z"/>
<path d="M5484 6364 c3 -9 -3 -36 -14 -60 -20 -48 -19 -50 30 -56 35 -4 40
-38 6 -38 -14 0 -26 -4 -26 -10 0 -5 18 -10 40 -10 40 0 40 0 40 38 0 20 4 52
10 71 16 58 6 76 -47 79 -37 1 -44 -1 -39 -14z"/>
<path d="M5214 6338 c-31 -27 -36 -29 -30 -12 6 19 2 22 -36 27 -23 3 -45 3
-48 1 -2 -3 -6 -38 -8 -77 l-4 -72 -44 -2 c-33 -1 -44 2 -44 13 0 10 6 13 19
9 23 -7 49 21 34 36 -8 8 -6 19 5 40 24 40 6 58 -42 41 -18 -7 -40 -10 -48 -7
-11 5 -14 -11 -13 -84 0 -121 8 -130 94 -101 44 15 90 21 156 22 l92 1 7 73
c4 40 4 84 0 98 -9 36 -44 34 -90 -6z"/>
<path d="M6875 6269 c-4 -54 -4 -102 0 -108 3 -6 31 -11 62 -11 l56 0 -7 68
c-7 68 -2 102 15 102 5 0 9 -37 9 -83 l0 -83 33 -12 c59 -21 75 -16 81 26 3
20 5 69 4 107 l-1 70 -76 2 c-42 1 -97 6 -123 11 l-46 9 -7 -98z"/>
<path d="M4893 6320 c-20 -15 -23 -28 -23 -82 0 -66 22 -120 42 -100 14 14 21
120 11 164 -8 36 -8 36 -30 18z"/>
<path d="M7192 6312 c-21 -14 -30 -65 -21 -121 4 -29 6 -57 3 -64 -2 -7 7 -13
23 -14 16 -1 42 -3 58 -5 l30 -3 3 94 c1 52 -1 98 -5 102 -13 12 -77 20 -91
11z"/>
<path d="M7636 6139 c-11 -110 -11 -112 39 -139 24 -13 48 -21 52 -17 10 11 3
178 -8 199 -6 12 -21 18 -43 18 l-33 0 -7 -61z"/>
<path d="M7762 6081 c5 -100 23 -141 62 -141 21 0 24 6 30 61 11 108 8 126
-20 148 -15 12 -38 21 -52 21 l-24 0 4 -89z"/>
<path d="M5465 6140 c-7 -12 64 -12 110 0 23 6 15 8 -37 9 -37 0 -70 -3 -73
-9z"/>
<path d="M7898 6077 c3 -48 -6 -108 -22 -148 -5 -12 5 -20 48 -36 l54 -20 6
20 c3 11 2 64 -1 119 -6 95 -7 98 -30 98 -13 0 -32 4 -42 9 -16 9 -17 5 -13
-42z"/>
<path d="M6620 6073 c0 -11 107 -43 144 -43 22 0 54 25 45 35 -10 9 -189 17
-189 8z"/>
<path d="M7145 6054 c9 -7 49 -18 88 -24 139 -23 213 -42 270 -73 31 -16 56
-32 54 -34 -2 -2 -69 13 -148 32 -97 24 -177 37 -244 41 -99 4 -99 4 -55 -10
25 -8 108 -26 185 -41 178 -32 243 -50 333 -91 79 -36 96 -52 30 -28 -113 40
-257 67 -305 58 -50 -9 -40 -19 36 -30 38 -6 79 -19 92 -28 l23 -16 -25 0
c-30 0 -189 28 -423 75 -181 36 -321 55 -396 54 -28 -1 16 -11 120 -29 172
-29 437 -84 600 -125 52 -13 167 -40 255 -60 88 -19 169 -38 180 -41 59 -15
-29 22 -157 67 -78 27 -144 52 -147 54 -2 3 15 5 38 5 27 0 76 -15 136 -40 92
-39 146 -49 174 -31 11 7 10 11 -7 20 -11 6 -29 11 -40 11 -23 0 -70 35 -61
45 4 3 25 -2 48 -11 50 -20 70 -9 66 37 -3 38 -34 59 -170 110 -122 46 -290
84 -449 102 -93 11 -115 11 -101 1z"/>
<path d="M6838 6053 c-9 -2 -19 -11 -22 -19 -4 -11 6 -14 47 -15 29 -1 67 -3
85 -5 17 -2 32 0 32 4 0 7 -36 18 -115 37 -5 2 -17 1 -27 -2z"/>
<path d="M8037 6033 c-4 -3 -7 -46 -7 -93 0 -100 12 -122 55 -102 22 10 23 14
12 41 -12 32 -2 81 18 88 6 2 8 -26 5 -77 -5 -75 -4 -80 18 -90 21 -9 61 -14
63 -7 0 1 4 39 7 83 l7 81 -70 42 c-67 40 -94 48 -108 34z"/>
<path d="M6685 6003 c-36 -9 -38 -22 -4 -26 19 -3 97 -12 174 -21 77 -9 204
-31 283 -49 146 -34 174 -31 92 10 -31 16 -73 25 -134 29 -62 5 -102 14 -134
30 -34 17 -50 20 -68 13 -16 -6 -51 -4 -102 6 -42 8 -79 14 -82 14 -3 -1 -14
-3 -25 -6z"/>
<path d="M8240 5866 c-18 -95 1 -153 47 -144 13 2 18 13 18 38 0 61 16 47 20
-17 4 -80 9 -87 55 -79 35 5 39 4 48 -23 6 -16 19 -34 30 -40 19 -10 21 -7 27
44 8 60 1 125 -16 157 -10 19 -11 19 -24 1 -19 -25 -49 -6 -53 35 -4 42 -31
50 -59 18 -29 -34 -33 -33 -33 8 0 47 -9 66 -30 66 -14 0 -20 -14 -30 -64z"/>
<path d="M5670 5838 l0 -75 53 -1 c66 -3 82 7 73 44 l-8 29 -18 -22 c-19 -23
-40 -30 -40 -14 0 5 20 26 45 47 29 23 42 41 36 47 -5 5 -39 12 -75 14 l-66 6
0 -75z"/>
<path d="M5847 5903 c-4 -3 -7 -26 -7 -49 0 -23 -4 -54 -10 -68 l-10 -26 66 0
c58 0 65 2 60 17 -4 9 -2 41 5 71 12 59 8 72 -16 52 -12 -10 -21 -10 -41 -1
-29 13 -38 14 -47 4z"/>
<path d="M6448 5811 l3 -79 41 -4 c46 -4 58 9 58 66 0 45 -41 96 -78 96 l-27
0 3 -79z"/>
<path d="M6590 5794 l0 -75 47 3 c45 3 48 5 55 38 4 19 4 45 1 58 -6 25 -49
52 -83 52 -18 0 -20 -6 -20 -76z"/>
<path d="M6753 5848 c-7 -13 -13 -46 -16 -75 -4 -48 -3 -51 22 -56 14 -3 38
-9 54 -13 26 -6 27 -5 27 32 0 67 -11 112 -29 117 -9 3 -23 8 -32 11 -10 5
-19 -1 -26 -16z"/>
<path d="M6880 5776 c0 -82 7 -93 60 -92 30 1 36 5 41 31 4 17 7 47 8 67 1 34
-2 39 -35 53 -69 29 -74 24 -74 -59z"/>
<path d="M7022 5818 c-7 -7 -12 -40 -12 -74 l0 -61 40 -7 c41 -6 56 -26 20
-26 -23 0 -105 -70 -93 -80 4 -3 34 -16 66 -29 83 -33 133 -16 90 31 -13 15
-16 37 -14 116 1 83 -1 101 -16 114 -25 22 -67 30 -81 16z"/>
<path d="M7173 5778 c-14 -17 -1 -104 19 -124 8 -9 33 -18 56 -21 l40 -5 4 43
c3 24 6 50 9 57 10 34 -105 79 -128 50z"/>
<path d="M7346 5741 c-13 -46 -15 -79 -8 -106 5 -16 12 -29 15 -27 4 1 20 -4
35 -11 44 -23 52 -13 52 67 l0 71 -45 11 c-38 9 -45 8 -49 -5z"/>
<path d="M7512 5695 c-7 -14 -12 -53 -12 -85 l0 -60 56 0 c43 0 55 3 51 14 -3
7 -9 35 -13 62 -4 29 -16 57 -30 71 -29 29 -38 29 -52 -2z"/>
<path d="M11024 5691 c-64 -16 -77 -42 -58 -116 26 -96 13 -404 -41 -965 -19
-208 -30 -400 -21 -400 4 0 16 21 28 47 23 51 37 215 38 440 0 114 16 237 38
293 7 18 9 4 5 -52 -4 -50 -2 -78 4 -78 10 0 25 80 38 200 8 67 12 640 5 639
-3 -1 -19 -4 -36 -8z"/>
<path d="M7646 5653 c-2 -10 -4 -48 -3 -85 1 -66 1 -68 27 -68 14 0 31 -5 38
-12 16 -16 20 0 24 93 3 69 2 75 -17 77 -11 0 -30 4 -42 7 -15 3 -23 0 -27
-12z"/>
<path d="M7780 5552 c0 -33 -3 -67 -6 -76 -4 -12 0 -16 16 -16 12 0 33 -9 47
-19 41 -33 51 -19 51 69 0 76 0 78 -26 83 -15 3 -39 9 -54 13 l-28 6 0 -60z"/>
<path d="M7940 5551 c0 -5 6 -11 13 -14 7 -3 2 -12 -15 -26 -49 -39 -34 -131
21 -131 38 0 44 9 19 30 l-22 17 43 44 42 44 -29 7 c-16 5 -35 15 -42 23 -14
17 -30 20 -30 6z"/>
<path d="M6411 5503 c-30 -36 -30 -38 -13 -56 14 -13 43 -21 108 -27 49 -4
101 -11 116 -15 25 -6 27 -5 30 32 3 32 6 38 26 37 33 -1 27 11 -15 31 -39 19
-120 22 -137 5 -7 -7 -3 -10 12 -10 33 0 94 -28 87 -40 -10 -16 -95 -11 -145
8 -46 18 -61 46 -25 48 36 2 40 4 25 14 -25 16 -37 12 -69 -27z"/>
<path d="M5688 5517 c-54 -5 -98 -13 -98 -17 0 -13 167 -23 239 -15 36 4 81 8
99 9 17 1 32 2 32 3 0 1 -13 9 -30 18 -32 17 -92 17 -242 2z"/>
<path d="M8031 5482 c-7 -13 -5 -32 6 -63 11 -32 13 -63 9 -114 -20 -225 -21
-212 5 -228 13 -9 35 -18 49 -22 l25 -6 -5 99 c-3 55 -11 106 -17 114 -10 12
-9 23 7 54 13 24 18 50 15 67 -3 15 -8 41 -11 57 -3 17 -10 28 -14 25 -5 -3
-14 4 -20 15 -13 25 -36 26 -49 2z"/>
<path d="M10430 5467 c-1 -28 154 -218 266 -327 93 -90 71 -54 -68 110 -120
144 -197 227 -198 217z"/>
<path d="M7020 5415 c-15 -18 -18 -16 45 -39 70 -26 103 -30 120 -16 13 11 5
17 -55 41 -82 33 -93 35 -110 14z"/>
<path d="M6320 5402 c-32 -7 -28 -9 50 -25 94 -19 148 -21 169 -8 32 20 -148
47 -219 33z"/>
<path d="M8166 5347 c-19 -195 -19 -260 3 -319 12 -31 29 -62 38 -70 15 -12
16 0 10 142 -4 109 -2 175 7 223 7 37 10 69 7 71 -3 2 -18 6 -32 10 -26 6 -27
5 -33 -57z"/>
<path d="M8260 5283 c0 -81 16 -118 49 -118 20 0 24 6 26 34 2 18 10 40 19 49
15 15 16 11 16 -50 0 -70 20 -110 58 -120 17 -5 19 1 18 83 -1 75 -4 89 -17
89 -9 0 -47 23 -85 50 -38 28 -72 50 -76 50 -5 0 -8 -30 -8 -67z"/>
<path d="M8483 5193 c-14 -49 -9 -138 10 -166 11 -17 13 -28 6 -32 -21 -14
-29 -59 -23 -139 7 -81 7 -83 32 -83 16 0 32 -9 42 -24 37 -56 46 -62 75 -55
20 5 25 10 17 18 -7 7 -9 38 -5 88 5 71 4 79 -16 99 -27 27 -45 23 -48 -10 0
-13 -1 -30 -2 -36 -1 -7 -7 -13 -15 -13 -11 0 -12 8 -5 41 10 44 -5 84 -36 95
-10 4 -7 12 12 29 22 18 27 31 27 71 -1 47 -30 124 -54 139 -5 3 -13 -7 -17
-22z"/>
<path d="M9416 5144 c-11 -28 -6 -71 9 -84 9 -7 16 -11 18 -9 1 2 13 16 26 32
24 27 24 27 5 42 -40 32 -52 35 -58 19z"/>
<path d="M8260 5017 l0 -113 32 -12 c17 -6 33 -10 35 -8 2 2 6 46 10 99 6 93
5 96 -20 121 -50 50 -57 39 -57 -87z"/>
<path d="M8593 5093 c-4 -9 -7 -46 -7 -82 l-1 -66 30 -3 31 -3 -4 73 c-4 70
-14 98 -34 98 -5 0 -12 -8 -15 -17z"/>
<path d="M8370 4965 c0 -101 1 -107 27 -132 l26 -27 9 24 c5 13 12 59 15 102
6 76 5 77 -25 107 -17 17 -35 31 -41 31 -7 0 -11 -37 -11 -105z"/>
<path d="M8699 4989 c-18 -71 -18 -293 0 -334 l14 -30 13 50 c22 78 28 204 15
277 -18 92 -26 99 -42 37z"/>
<path d="M8839 4911 c-38 -38 -40 -88 -5 -120 26 -25 46 -21 46 9 0 24 10 50
20 50 5 0 6 -18 3 -39 -3 -22 -2 -56 1 -76 6 -30 11 -35 27 -31 10 4 28 8 38
11 16 5 18 2 14 -14 -4 -16 3 -25 27 -38 18 -10 41 -25 52 -33 18 -15 18 -16
-11 -33 -30 -18 -31 -18 -31 1 0 29 -35 54 -83 59 -39 5 -43 8 -40 28 4 15 -3
29 -23 44 -32 25 -37 21 -60 -57 -18 -60 -10 -99 28 -139 21 -23 21 -23 35 -3
20 28 28 25 48 -20 23 -50 82 -106 123 -115 36 -8 72 8 73 33 0 9 6 -5 14 -33
17 -65 61 -105 114 -105 34 0 38 -3 34 -19 -3 -13 3 -24 21 -35 14 -9 38 -23
52 -32 20 -12 23 -18 13 -25 -11 -6 -10 -9 3 -14 42 -16 48 -4 52 99 l4 98
-39 -6 c-34 -5 -39 -4 -39 13 0 11 -4 23 -10 26 -5 3 -10 13 -10 21 0 28 28
25 61 -8 l34 -33 3 53 c6 103 -64 176 -285 299 -131 72 -214 136 -239 184 -18
36 -28 36 -65 0z m301 -320 c0 -28 42 -57 101 -71 37 -9 49 -16 45 -27 -3 -8
1 -25 10 -38 9 -13 13 -29 9 -35 -10 -17 -33 -11 -40 10 -6 19 -112 106 -120
98 -2 -1 -8 -19 -13 -38 -6 -19 -11 -26 -11 -16 -1 11 -14 43 -31 72 l-29 53
32 4 c17 2 35 5 40 5 4 1 7 -7 7 -17z"/>
<path d="M11130 4670 c50 -100 87 -147 135 -176 84 -49 83 -26 -2 71 -43 50
-98 108 -122 130 l-44 40 33 -65z"/>
<path d="M9501 4436 c-8 -10 -8 -22 0 -46 11 -31 9 -90 -7 -246 l-7 -61 134
-66 c74 -36 208 -114 299 -174 91 -60 182 -119 203 -132 l37 -23 0 64 c0 67
-13 104 -43 122 -14 9 -20 7 -28 -6 -6 -10 -14 -18 -20 -18 -5 0 -2 11 7 25
13 19 14 28 5 39 -13 15 -85 36 -127 36 -24 0 -26 2 -20 34 6 33 6 34 -41 45
-32 9 -59 24 -83 49 -35 37 -35 37 -55 17 -19 -19 -19 -19 -26 14 -8 41 -22
56 -44 47 -12 -4 -15 -13 -11 -31 6 -23 3 -25 -24 -25 -28 0 -30 2 -20 20 15
29 4 57 -46 114 l-42 49 26 23 27 22 6 -36 c5 -36 25 -82 34 -82 3 0 14 9 26
21 l21 21 25 -42 c31 -51 131 -127 312 -235 74 -44 161 -106 195 -137 33 -32
69 -58 79 -58 11 0 33 -12 50 -26 36 -30 43 -23 48 46 l4 45 -60 23 c-84 32
-88 35 -105 72 -12 27 -31 40 -106 75 -73 34 -110 60 -180 125 -127 118 -229
184 -322 209 -35 10 -42 16 -42 36 0 27 -32 65 -54 65 -7 0 -19 -6 -25 -14z"/>
<path d="M10995 4409 c-11 -51 -2 -299 11 -299 14 0 26 27 16 34 -4 2 -7 70
-7 150 0 142 -6 178 -20 115z"/>
<path d="M11356 4404 c-4 -10 5 -29 24 -50 17 -20 27 -40 24 -49 -4 -11 1 -15
17 -15 13 0 34 -3 45 -6 14 -4 23 0 27 10 4 10 -13 34 -51 70 -60 59 -76 66
-86 40z"/>
<path d="M10794 4187 c54 -72 88 -98 113 -90 32 11 -50 105 -125 142 l-43 22
55 -74z"/>
<path d="M11704 4110 c-12 -5 -29 -18 -37 -30 l-15 -21 -61 25 c-96 41 -188
31 -188 -20 0 -30 3 -30 57 6 25 16 50 30 56 30 5 0 20 -14 32 -30 20 -27 22
-35 12 -71 -6 -23 -9 -43 -6 -46 3 -3 27 5 53 18 35 17 54 35 68 64 11 22 21
42 22 44 2 2 22 -3 45 -13 27 -10 44 -13 46 -6 2 6 18 1 39 -11 39 -24 56 -17
58 25 0 22 -4 24 -55 30 -30 3 -66 8 -80 11 -14 2 -35 0 -46 -5z"/>
<path d="M11740 3953 c1 -26 21 -57 57 -87 l31 -26 11 31 c17 49 14 59 -18 59
-17 0 -33 5 -36 10 -3 6 -1 10 4 10 6 0 11 5 11 10 0 6 -13 10 -30 10 -22 0
-30 -5 -30 -17z"/>
<path d="M10199 3809 c-6 -13 -14 -54 -17 -91 -4 -60 -3 -68 14 -73 11 -3 45
-19 76 -35 31 -17 68 -30 82 -30 22 0 26 5 26 28 0 33 -28 73 -89 128 -24 21
-52 52 -62 68 l-17 28 -13 -23z"/>
<path d="M10422 3748 c-23 -61 -16 -76 26 -54 42 22 46 10 11 -34 -35 -44 -46
-94 -29 -144 16 -49 52 -73 86 -57 33 15 32 15 36 -16 2 -22 14 -34 60 -58 32
-17 71 -44 88 -60 31 -29 32 -29 34 24 1 13 6 26 13 28 8 3 10 -6 6 -30 -4
-30 -1 -38 21 -52 14 -10 23 -21 20 -26 -3 -5 8 -9 25 -9 36 0 39 5 47 63 l7
46 -38 3 c-34 3 -38 6 -40 31 0 21 4 27 21 27 12 0 33 10 48 21 38 30 43 17 6
-14 -36 -30 -38 -47 -7 -47 26 0 143 -97 141 -117 -1 -8 10 -13 32 -13 42 0
42 10 5 76 -54 93 -198 200 -353 261 -60 23 -67 29 -62 48 4 16 -2 28 -22 44
-33 26 -38 20 -48 -56 l-7 -52 37 -16 c20 -8 47 -15 60 -15 17 0 24 -6 24 -19
0 -30 29 -53 56 -47 18 5 22 3 18 -8 -8 -20 12 -29 37 -16 27 15 39 2 15 -16
-36 -26 -76 -17 -117 26 -21 22 -40 40 -43 40 -3 0 -6 -12 -8 -27 -4 -28 -4
-28 -21 10 -21 46 -43 56 -63 31 -14 -18 -15 -16 -9 17 4 26 1 40 -10 49 -12
10 -13 16 -3 28 7 8 15 41 18 73 5 53 4 59 -13 59 -10 0 -33 11 -52 26 l-33
25 -20 -53z"/>
<path d="M10879 3300 c-11 -35 -10 -46 3 -68 14 -24 142 -121 161 -122 4 0 7
21 7 46 0 25 4 54 10 64 8 16 4 19 -38 25 -38 6 -55 15 -89 52 l-42 44 -12
-41z"/>
<path d="M11100 3270 c0 -42 3 -50 19 -50 23 0 44 -24 39 -46 -5 -26 -25 -28
-31 -3 -9 34 -32 16 -31 -24 2 -76 87 -161 152 -154 29 3 32 1 32 -25 0 -31
30 -54 47 -37 7 7 15 4 26 -11 9 -13 42 -40 74 -61 65 -44 79 -40 89 23 6 32
3 37 -31 57 -31 18 -35 24 -25 36 18 21 28 19 32 -7 6 -41 33 -27 36 18 4 49
-15 71 -47 55 -27 -15 -31 -14 -31 7 0 34 -63 93 -158 149 -121 71 -152 93
-152 110 0 7 -9 13 -20 13 -17 0 -20 -7 -20 -50z"/>
<path d="M12506 1919 c-38 -30 -32 -37 22 -32 55 6 86 28 62 43 -24 16 -55 11
-84 -11z"/>
<path d="M2000 1150 c-13 -8 -13 -10 2 -10 9 0 20 5 23 10 8 13 -5 13 -25 0z"/>
<path d="M4733 1153 c-26 -10 -1 -93 27 -93 12 0 26 27 33 68 6 30 5 32 -21
31 -15 0 -33 -3 -39 -6z"/>
<path d="M1914 1108 c-90 -61 -114 -129 -74 -208 l20 -39 -53 -5 c-108 -12
-318 -26 -484 -32 l-173 -7 0 -33 c0 -30 4 -34 38 -43 20 -5 48 -12 62 -15 14
-4 123 -11 244 -16 145 -6 236 -15 273 -25 58 -17 102 -13 141 11 17 11 22 25
23 57 1 38 2 39 8 12 3 -16 13 -31 22 -33 18 -3 55 58 64 111 4 21 18 53 31
72 l23 35 -22 0 c-13 0 -28 -5 -34 -11 -18 -18 -34 -1 -26 29 3 15 23 54 45
86 21 33 38 64 38 69 0 5 -22 6 -50 2 -34 -5 -50 -3 -50 4 0 18 -15 13 -66
-21z"/>
<path d="M2905 1092 c-27 -1 -130 -14 -227 -27 -97 -14 -203 -25 -235 -26 -50
0 -54 -2 -33 -11 34 -14 213 -3 370 22 69 11 160 20 202 20 68 0 79 -2 88 -21
11 -20 13 -20 31 -3 10 9 16 21 13 26 -4 6 -10 6 -16 0 -7 -7 -17 -6 -32 3
-24 14 -87 21 -161 17z"/>
<path d="M2941 981 c-9 -6 8 -11 53 -16 83 -9 183 -2 198 13 9 9 -17 12 -112
12 -69 0 -131 -4 -139 -9z"/>
<path d="M5820 935 c0 -49 2 -55 21 -55 12 0 37 -9 55 -21 38 -23 72 -22 88 4
19 30 -12 70 -67 86 -26 8 -47 20 -47 28 0 7 -11 13 -25 13 -24 0 -25 -3 -25
-55z"/>
<path d="M2395 931 l-30 -7 25 -14 c17 -9 64 -15 140 -17 109 -3 190 -17 190
-34 0 -4 -22 -12 -48 -19 -40 -9 -65 -8 -136 5 -47 9 -97 15 -109 13 -20 -3
-18 -6 17 -27 37 -23 48 -25 187 -25 154 -1 163 2 134 40 -8 10 -15 22 -15 27
0 4 42 7 93 7 93 0 125 9 112 29 -4 8 -25 10 -63 6 -32 -4 -129 1 -217 9 -167
17 -230 18 -280 7z"/>
<path d="M12303 813 c-64 -9 -31 -21 75 -27 59 -3 157 -9 217 -12 76 -4 124
-2 155 6 l45 13 -35 9 c-39 10 -406 19 -457 11z"/>
<path d="M1647 681 c-57 -5 -72 -10 -89 -31 -26 -32 -13 -36 69 -21 38 8 66
20 83 36 13 14 20 24 15 23 -6 0 -41 -4 -78 -7z"/>
<path d="M3788 680 c-54 -5 -89 -22 -75 -36 3 -3 25 -8 49 -11 37 -4 47 -1 67
21 14 14 23 27 20 29 -2 1 -30 0 -61 -3z"/>
<path d="M4097 683 c-14 -13 -7 -21 25 -27 17 -3 46 -18 65 -32 18 -14 33 -20
33 -13 0 6 7 8 16 5 14 -5 15 -4 5 8 -6 8 -21 12 -31 9 -22 -6 -43 28 -22 35
7 2 12 7 12 11 0 10 -94 14 -103 4z"/>
<path d="M3950 642 l-35 -14 50 -14 c71 -20 132 -29 120 -17 -5 5 -30 21 -55
35 -42 24 -47 24 -80 10z"/>
<path d="M10980 645 c0 -9 5 -25 11 -37 6 -11 8 -22 6 -24 -3 -3 -39 2 -81 10
-104 22 -216 20 -343 -6 -178 -36 -303 -28 -437 27 -17 8 -19 5 -13 -23 6 -32
6 -32 -34 -32 -22 0 -56 7 -76 15 -40 17 -123 20 -123 5 0 -5 2 -10 5 -10 2 0
66 -16 142 -35 76 -19 139 -35 140 -35 2 0 3 9 3 21 0 11 5 29 10 39 10 18 11
18 53 0 23 -10 91 -26 150 -35 60 -9 119 -20 132 -25 20 -8 27 -5 40 13 8 12
15 30 15 40 0 9 7 20 16 24 9 3 107 -2 218 -11 209 -18 250 -16 266 14 14 26
13 29 -9 23 -16 -4 -19 -1 -14 15 5 20 3 21 -59 38 -12 4 -18 0 -18 -11z"/>
<path d="M8938 611 c-47 -10 -94 -24 -105 -31 -17 -11 -17 -11 1 -5 109 34
296 30 621 -15 121 -16 260 -33 308 -38 l88 -8 -3 50 c-3 47 -5 51 -30 54 -27
3 -27 2 -16 -28 17 -50 0 -58 -75 -37 -199 56 -287 69 -497 73 -174 3 -218 1
-292 -15z"/>
<path d="M11108 613 c7 -3 16 -2 19 1 4 3 -2 6 -13 5 -11 0 -14 -3 -6 -6z"/>
<path d="M11160 590 c44 -35 89 -40 340 -39 257 1 387 10 359 23 -10 4 -51 3
-94 -3 -112 -16 -164 -14 -333 14 -84 14 -185 25 -225 25 l-72 0 25 -20z"/>
<path d="M1873 574 c-16 -25 -16 -27 3 -41 21 -16 73 -10 86 10 4 7 1 17 -8
24 -9 6 -13 16 -9 22 4 7 -5 11 -24 11 -22 0 -35 -7 -48 -26z"/>
<path d="M8715 577 c-34 -19 -57 -22 -150 -22 -60 0 -133 4 -162 8 -48 8 -51
7 -46 -11 4 -18 -2 -21 -74 -28 -44 -4 -164 -2 -278 5 -147 9 -222 10 -284 2
-46 -6 -86 -12 -88 -14 -10 -11 342 -30 552 -30 346 -1 526 25 561 79 23 34
16 36 -31 11z"/>
<path d="M4682 579 c3 -8 13 -14 24 -14 10 0 20 -8 22 -17 5 -25 -35 -32 -135
-25 -93 7 -106 -1 -84 -49 10 -22 8 -26 -17 -35 -34 -13 -237 -13 -357 0 -82
9 -177 14 -230 12 -14 -1 -21 -8 -21 -21 0 -22 3 -22 261 -39 88 -6 174 -15
190 -19 22 -7 38 -5 60 7 17 8 55 15 85 16 51 0 56 2 68 30 29 68 38 80 58 76
10 -2 46 -4 79 -5 50 -1 60 2 60 16 0 9 8 25 18 35 23 26 22 30 -10 30 -16 0
-39 4 -52 8 -18 6 -23 5 -19 -6z"/>
<path d="M4833 573 c-39 -8 -25 -20 30 -27 83 -10 293 -19 286 -12 -8 8 -236
46 -269 45 -14 -1 -35 -4 -47 -6z"/>
<path d="M8269 571 c12 -8 51 -4 51 5 0 2 -15 4 -32 4 -23 0 -29 -3 -19 -9z"/>
<path d="M6740 558 c-41 -5 -101 -7 -132 -6 -52 3 -68 -3 -68 -25 0 -1 81 0
180 3 141 4 182 8 194 20 13 13 9 15 -42 16 -31 1 -91 -3 -132 -8z"/>
<path d="M5956 509 c3 -35 1 -39 -24 -46 -58 -17 -265 -7 -412 20 -166 30
-320 45 -305 29 22 -22 148 -62 256 -82 141 -27 357 -37 417 -21 49 14 100 56
103 86 3 39 -1 51 -20 52 -16 1 -18 -4 -15 -38z"/>
<path d="M6060 519 c0 -12 32 -19 90 -19 57 0 96 18 48 22 -54 5 -138 2 -138
-3z"/>
<path d="M3240 483 c-125 -6 -356 -32 -520 -59 -174 -29 -731 -141 -738 -149
-14 -13 40 -17 100 -7 38 7 85 12 105 12 36 0 36 0 18 -20 -10 -11 -16 -22
-13 -25 2 -2 35 -9 73 -14 72 -10 102 -7 240 28 44 12 122 24 174 27 94 7 94
7 72 26 -31 24 -102 24 -222 -2 -100 -21 -195 -26 -218 -11 -19 12 53 34 239
71 235 47 562 81 895 94 83 4 193 10 245 13 l95 8 -110 6 c-113 7 -303 7 -435
2z"/>
<path d="M1750 463 c-88 -15 -136 -55 -155 -130 -7 -26 -11 -51 -8 -55 2 -5
20 -8 39 -8 19 0 76 -6 127 -14 50 -8 121 -17 156 -20 59 -6 63 -5 50 12 -31
39 -43 43 -134 41 -164 -3 -163 -4 -180 37 -8 20 -15 38 -15 40 0 10 82 43
132 53 32 7 68 21 80 31 l23 19 -45 -1 c-25 0 -56 -3 -70 -5z"/>
<path d="M8701 456 c-7 -8 -10 -20 -6 -26 10 -16 91 -12 105 5 17 20 14 22
-41 30 -35 5 -48 3 -58 -9z"/>
<path d="M9476 449 c-14 -11 -26 -25 -26 -30 0 -5 29 -9 65 -9 69 0 82 12 49
44 -21 22 -56 20 -88 -5z"/>
<path d="M9052 408 c-18 -18 -15 -25 19 -37 41 -14 72 -14 87 1 9 9 6 16 -16
30 -31 21 -73 23 -90 6z"/>
<path d="M7020 384 c-55 -15 -115 -46 -160 -85 -30 -25 -41 -27 182 37 170 49
188 63 83 63 -27 0 -75 -7 -105 -15z"/>
<path d="M7313 387 c-23 -7 -44 -14 -46 -17 -3 -3 50 -4 117 -2 73 2 171 -3
243 -12 150 -20 261 -20 332 -2 29 8 55 16 56 18 2 2 -44 2 -103 0 -61 -2
-163 3 -237 12 -149 18 -301 19 -362 3z"/>
<path d="M3274 285 c-14 -11 -15 -14 -4 -15 8 0 21 -9 28 -20 12 -20 47 -27
55 -12 2 4 7 19 11 35 6 26 5 27 -32 27 -21 0 -47 -7 -58 -15z"/>
<path d="M4901 276 l-23 -24 39 13 c21 8 60 14 87 15 64 0 56 6 -20 13 -56 6
-63 4 -83 -17z"/>
<path d="M6145 248 c-10 -29 -23 -59 -30 -66 -7 -8 -56 -18 -114 -25 -116 -13
-293 4 -505 48 -66 14 -121 23 -124 20 -3 -3 -2 -5 2 -5 4 0 85 -20 179 -44
214 -55 315 -70 426 -63 142 9 168 24 202 115 16 44 41 48 130 19 40 -14 103
-28 139 -32 72 -7 234 14 310 40 25 8 34 13 20 10 -87 -17 -207 -16 -380 4
-102 12 -197 24 -212 27 -24 5 -27 1 -43 -48z"/>
<path d="M3797 274 c-4 -4 -7 -16 -7 -26 0 -14 8 -18 41 -18 45 0 79 14 79 33
0 13 -101 23 -113 11z"/>
<path d="M7663 256 c6 -18 50 -36 82 -34 22 2 30 8 30 23 0 18 -7 20 -58 21
-40 1 -57 -2 -54 -10z"/>
<path d="M4060 231 c0 -5 -2 -16 -5 -23 -5 -11 7 -13 63 -8 38 4 74 10 80 14
28 17 7 26 -63 26 -41 0 -75 -4 -75 -9z"/>
<path d="M3529 202 c-28 -36 -24 -42 30 -42 27 0 56 -3 65 -6 12 -5 16 1 16
23 0 26 -4 29 -46 39 -42 10 -46 9 -65 -14z"/>
<path d="M4680 220 c0 -17 41 -31 71 -25 53 12 28 35 -37 35 -19 0 -34 -4 -34
-10z"/>
<path d="M4795 220 c-8 -13 5 -13 25 0 13 8 13 10 -2 10 -9 0 -20 -4 -23 -10z"/>
<path d="M5123 125 c-18 -8 -33 -17 -33 -21 0 -9 153 1 171 11 11 7 8 11 -11
16 -41 12 -93 9 -127 -6z"/>
<path d="M5154 59 c-11 -18 9 -29 86 -45 99 -20 129 -15 73 13 -24 12 -52 18
-67 16 -19 -4 -26 -1 -26 11 0 19 -54 23 -66 5z"/>
<path d="M5298 53 c6 -2 18 -2 25 0 6 3 1 5 -13 5 -14 0 -19 -2 -12 -5z"/>
</g>
</svg>
