<?xml version="1.0" standalone="no"?>
<!DOCTYPE svg PUBLIC "-//W3C//DTD SVG 20010904//EN"
 "http://www.w3.org/TR/2001/REC-SVG-20010904/DTD/svg10.dtd">
<svg version="1.0" xmlns="http://www.w3.org/2000/svg"
 width="1280.000000pt" height="923.000000pt" viewBox="0 0 1280.000000 923.000000"
 preserveAspectRatio="xMidYMid meet">
<metadata>
Created by potrace 1.15, written by Peter Selinger 2001-2017
</metadata>
<g transform="translate(0.000000,923.000000) scale(0.100000,-0.100000)"
fill="#000000" stroke="none">
<path d="M8239 9214 c-127 -39 -220 -230 -205 -424 7 -100 22 -143 69 -196 79
-90 162 -113 429 -121 l196 -6 37 -81 c20 -45 39 -86 42 -92 3 -8 -28 -14 -98
-19 l-101 -7 5 -82 c3 -44 10 -119 15 -166 6 -47 12 -119 14 -160 l3 -75 -35
-7 c-106 -21 -527 -81 -600 -86 -79 -4 -91 -2 -155 26 -263 115 -412 144 -950
188 -577 46 -746 22 -990 -141 -92 -61 -345 -299 -413 -387 -52 -70 -142 -237
-248 -461 -46 -100 -103 -213 -126 -251 l-41 -69 -111 7 c-491 28 -973 237
-1085 469 l-23 48 22 70 c28 86 25 215 -7 276 -27 53 -91 98 -171 123 -57 17
-415 72 -952 145 -216 30 -297 68 -542 256 -152 116 -222 157 -333 195 -77 27
-88 28 -323 32 -241 4 -243 4 -277 -20 l-35 -23 0 -121 0 -120 -70 -11 c-91
-14 -104 -25 -96 -80 11 -84 99 -235 304 -523 61 -85 124 -177 141 -205 28
-47 30 -53 19 -88 -16 -52 -78 -120 -132 -146 -70 -32 -127 -42 -313 -51 -187
-9 -254 -27 -268 -70 -6 -18 -12 -20 -38 -14 -18 3 -62 22 -99 40 -121 61
-230 43 -317 -51 -35 -38 -41 -51 -41 -88 0 -90 122 -187 235 -187 51 0 148
39 220 89 20 14 46 21 77 21 41 0 54 -5 87 -35 45 -41 71 -90 71 -135 0 -35
-41 -119 -95 -192 l-35 -47 -142 -3 -142 -3 -58 -125 -57 -125 -73 -5 c-58 -4
-80 -10 -108 -31 -59 -45 -97 -59 -153 -59 -68 0 -96 -20 -134 -98 -28 -57
-28 -57 -26 -241 2 -102 7 -199 13 -216 13 -41 59 -83 199 -185 62 -46 130
-105 152 -132 41 -52 69 -128 69 -186 0 -41 25 -97 48 -108 9 -5 76 -11 147
-14 l131 -5 67 -48 c37 -26 94 -73 128 -104 60 -56 61 -57 54 -99 -3 -24 -35
-130 -71 -236 -73 -216 -119 -392 -134 -512 -13 -105 -13 -426 1 -557 79 -779
556 -1491 1164 -1739 141 -58 278 -89 450 -101 174 -13 433 -5 550 17 100 19
247 74 343 127 279 157 555 474 752 866 27 56 55 101 60 101 27 0 479 -229
489 -248 13 -25 23 -29 134 -46 86 -14 190 -43 472 -132 61 -19 139 -52 175
-73 l65 -39 295 -21 c162 -12 385 -31 495 -41 110 -11 295 -29 410 -40 226
-23 355 -40 700 -94 448 -70 769 -102 953 -94 135 6 184 22 286 89 57 38 66
48 66 74 0 49 -38 172 -92 299 -61 142 -105 223 -154 279 -32 38 -35 46 -32
92 3 28 17 91 32 140 24 80 27 107 28 240 2 173 -6 209 -84 404 -76 192 -93
261 -79 323 5 20 6 38 2 40 -4 2 -18 23 -33 48 -27 48 -28 47 21 96 31 31 70
42 216 59 159 19 167 22 214 56 51 36 77 87 86 166 9 77 20 87 84 78 l49 -7 6
-66 c4 -37 16 -134 27 -217 l20 -150 -71 -170 c-116 -279 -172 -516 -189 -810
-28 -466 57 -899 253 -1288 163 -325 419 -668 630 -844 353 -296 775 -435
1326 -437 237 -1 310 9 495 65 848 260 1456 1294 1366 2324 -30 340 -110 624
-269 955 -136 281 -223 401 -481 662 -112 114 -203 210 -200 212 3 3 60 8 127
12 85 5 122 11 122 19 0 27 -89 110 -189 176 -136 90 -373 207 -526 259 -240
82 -413 115 -651 126 l-141 7 -12 59 c-15 73 -53 118 -127 152 -40 18 -54 30
-54 45 0 36 53 31 224 -20 186 -56 275 -78 363 -89 42 -6 78 -9 79 -7 2 2 -3
27 -11 57 -8 30 -11 57 -7 61 4 3 50 37 102 74 52 37 175 129 273 204 157 120
184 137 228 144 28 4 76 17 107 30 67 26 90 59 109 156 16 87 16 92 -4 89 -15
-3 -29 55 -105 442 -48 245 -87 456 -87 470 0 14 11 43 24 65 51 83 43 102
-157 356 -68 85 -135 173 -149 195 -36 52 -227 376 -324 547 l-78 138 6 80 c9
108 41 167 170 306 56 60 115 134 132 164 60 110 29 252 -78 357 -100 98 -214
133 -297 90 -38 -20 -50 -34 -82 -98 -48 -97 -68 -192 -75 -365 -5 -131 -4
-142 16 -166 18 -23 30 -27 100 -33 128 -11 131 -46 8 -101 l-61 -28 -15 24
c-40 60 -161 209 -297 365 -82 94 -187 217 -234 274 -104 126 -203 213 -289
254 -83 38 -200 46 -336 22 -131 -22 -200 -47 -390 -141 -94 -46 -191 -90
-215 -99 -54 -18 -41 -27 -200 134 -131 133 -180 163 -306 185 -100 18 -236
18 -295 -1z m-6375 -1142 c118 -56 246 -160 246 -200 0 -6 -24 -8 -57 -6 -32
2 -159 9 -282 14 -124 6 -225 11 -226 13 -1 1 -16 37 -33 79 -32 76 -39 117
-24 132 4 4 75 6 157 4 145 -3 152 -4 219 -36z m7199 -24 c87 -60 217 -191
217 -216 0 -8 -280 5 -288 13 -3 2 3 16 12 29 12 19 16 48 16 111 0 47 3 85 6
85 3 0 20 -10 37 -22z m122 -319 c105 -6 193 -14 196 -18 4 -3 15 -36 26 -73
l20 -66 -36 -24 c-35 -23 -36 -25 -36 -87 l0 -64 -39 -13 c-22 -8 -40 -13 -41
-12 -1 2 -8 23 -16 48 l-14 45 -70 12 c-108 19 -115 22 -115 41 0 10 11 29 25
42 29 27 32 61 8 85 -24 24 -86 14 -185 -31 -44 -20 -97 -38 -118 -41 -37 -5
-38 -5 -54 43 -22 65 -21 71 17 91 67 37 92 43 167 38 41 -3 161 -10 265 -16z
m841 -879 c340 -27 1052 -138 1126 -176 50 -26 176 -158 248 -259 135 -191
231 -394 257 -542 16 -96 10 -117 -44 -139 -78 -33 -340 25 -683 153 -240 89
-641 257 -720 300 -77 43 -153 112 -185 168 -61 105 -175 409 -175 465 0 26 7
32 41 39 3 0 64 -4 135 -9z m-7759 -577 c26 -20 96 -76 154 -124 97 -80 156
-122 372 -261 81 -53 143 -111 188 -178 62 -92 24 -106 -78 -28 -293 224 -328
245 -394 234 -51 -8 -84 -25 -137 -70 -36 -30 -49 -35 -95 -35 -64 0 -94 -11
-127 -46 -23 -24 -25 -34 -24 -118 0 -51 4 -139 8 -197 4 -58 4 -110 -1 -117
-5 -6 -99 -54 -210 -107 -296 -139 -341 -158 -364 -151 -34 11 -138 104 -145
129 -8 34 14 75 135 246 61 85 156 223 212 305 262 384 398 555 441 555 9 0
38 -16 65 -37z m1172 -590 c35 -21 88 -61 118 -88 l53 -51 0 -97 0 -97 28 -6
c87 -20 87 -20 90 -47 3 -21 9 -27 28 -27 21 0 24 -4 24 -40 0 -22 -4 -40 -10
-40 -16 0 -139 112 -286 262 -238 242 -254 268 -161 268 43 0 64 -7 116 -37z
m6649 -707 c28 -85 52 -162 52 -171 0 -10 -22 -26 -62 -44 -105 -48 -318 -121
-333 -115 -34 13 -32 40 16 244 28 117 32 127 63 148 35 24 183 92 201 92 6 0
34 -69 63 -154z m-8152 -1390 c26 -26 34 -42 34 -69 0 -54 -35 -77 -116 -77
-63 0 -64 1 -64 27 0 31 78 153 98 153 8 0 29 -15 48 -34z m682 -930 c40 -15
45 -15 82 4 22 11 44 20 49 20 6 0 96 -39 201 -87 l190 -88 -6 -30 c-19 -98
-143 -288 -254 -388 -88 -79 -149 -109 -234 -115 -93 -6 -139 8 -233 70 -155
102 -423 399 -423 469 0 16 5 16 63 2 88 -21 228 -13 287 15 25 12 79 51 120
87 80 70 79 70 158 41z m9127 -1239 c25 -134 -220 -386 -509 -523 -135 -64
-189 -76 -367 -81 -136 -5 -166 -3 -240 16 -145 37 -317 130 -404 220 -48 50
-40 51 92 20 67 -17 119 -22 218 -22 114 0 139 3 208 27 42 14 105 40 140 58
58 29 72 32 202 39 82 4 163 14 195 24 86 26 215 98 325 179 55 41 108 75 117
75 12 1 19 -10 23 -32z"/>
</g>
</svg>
